<svg version="1.1" viewBox="0.0 0.0 1000.0 720.0" fill="none" stroke="none" stroke-linecap="square" stroke-miterlimit="10" xmlns:xlink="http://www.w3.org/1999/xlink" xmlns="http://www.w3.org/2000/svg"><clipPath id="p.0"><path d="m0 0l1000.0 0l0 720.0l-1000.0 0l0 -720.0z" clip-rule="nonzero"/></clipPath><g clip-path="url(#p.0)"><path fill="#000000" fill-opacity="0.0" d="m0 0l1000.0 0l0 720.0l-1000.0 0z" fill-rule="evenodd"/><path fill="#000e1b" d="m0.19553806 -0.007874016l1000.0 0l0 275.65353l-1000.0 0z" fill-rule="evenodd"/><path fill="#a1b5ae" d="m-0.27690288 203.29921l1000.0 0l0 516.69293l-1000.0 0z" fill-rule="evenodd"/><path fill="#bebda7" d="m104.67835 326.40158l791.19183 0l104.40411 104.40405l0 289.20224l0 0l-1000.0 0l0 0l0 -289.20224z" fill-rule="evenodd"/><path fill="#d6d4bc" d="m314.98734 385.45486l33.295624 -33.295624l72.23279 72.23279l72.23279 -72.23279l33.295654 33.295624l-72.23282 72.23279l72.23282 72.23282l-33.295654 33.295593l-72.23279 -72.23276l-72.23279 72.23276l-33.295624 -33.295593l72.23279 -72.23282z" fill-rule="evenodd"/><path stroke="#a2bcb3" stroke-width="3.0" stroke-linejoin="round" stroke-linecap="butt" d="m314.98734 385.45486l33.295624 -33.295624l72.23279 72.23279l72.23279 -72.23279l33.295654 33.295624l-72.23282 72.23279l72.23282 72.23282l-33.295654 33.295593l-72.23279 -72.23276l-72.23279 72.23276l-33.295624 -33.295593l72.23279 -72.23282z" fill-rule="evenodd"/><path fill="#d6d4bc" d="m738.65924 384.06116l33.295654 -33.295624l72.23279 72.23279l72.23279 -72.23279l33.295593 33.295624l-72.23279 72.23282l72.23279 72.23276l-33.295593 33.295654l-72.23279 -72.23279l-72.23279 72.23279l-33.295654 -33.295654l72.23279 -72.23276z" fill-rule="evenodd"/><path stroke="#a2bcb3" stroke-width="3.0" stroke-linejoin="round" stroke-linecap="butt" d="m738.65924 384.06116l33.295654 -33.295624l72.23279 72.23279l72.23279 -72.23279l33.295593 33.295624l-72.23279 72.23282l72.23279 72.23276l-33.295593 33.295654l-72.23279 -72.23279l-72.23279 72.23279l-33.295654 -33.295654l72.23279 -72.23276z" fill-rule="evenodd"/><path fill="#bebda7" d="m773.3976 418.67227l33.228333 -33.228333l3.2126465 3.2125854l-33.228394 33.228333z" fill-rule="evenodd"/><path stroke="#a2bcb3" stroke-width="3.0" stroke-linejoin="round" stroke-linecap="butt" d="m773.3976 418.67227l33.228333 -33.228333l3.2126465 3.2125854l-33.228394 33.228333z" fill-rule="evenodd"/><path fill="#bebda7" d="m916.1667 418.25986l-33.039368 -33.0394l-3.4331055 3.433075l33.039368 33.039368z" fill-rule="evenodd"/><path stroke="#a2bcb3" stroke-width="3.0" stroke-linejoin="round" stroke-linecap="butt" d="m916.1667 418.25986l-33.039368 -33.0394l-3.4331055 3.433075l33.039368 33.039368z" fill-rule="evenodd"/><path fill="#bebda7" d="m879.31635 523.2323l32.75592 -32.75589l2.86615 2.86615l-32.75592 32.75589z" fill-rule="evenodd"/><path stroke="#a2bcb3" stroke-width="3.0" stroke-linejoin="round" stroke-linecap="butt" d="m879.31635 523.2323l32.75592 -32.75589l2.86615 2.86615l-32.75592 32.75589z" fill-rule="evenodd"/><path fill="#bebda7" d="m809.2401 523.4998l-32.346497 -32.346466l-3.2440796 3.2440796l32.346436 32.346466z" fill-rule="evenodd"/><path stroke="#a2bcb3" stroke-width="3.0" stroke-linejoin="round" stroke-linecap="butt" d="m809.2401 523.4998l-32.346497 -32.346466l-3.2440796 3.2440796l32.346436 32.346466z" fill-rule="evenodd"/><path fill="#bebda7" d="m844.18744 422.34183l33.95276 33.95276l-33.95276 33.95276l-33.95276 -33.95276z" fill-rule="evenodd"/><path stroke="#a2bcb3" stroke-width="4.0" stroke-linejoin="round" stroke-linecap="butt" d="m844.18744 422.34183l33.95276 33.95276l-33.95276 33.95276l-33.95276 -33.95276z" fill-rule="evenodd"/><path fill="#d6d4bc" d="m844.38367 490.92206l33.295593 -33.295624l72.23279 72.23276l72.23279 -72.23276l33.295715 33.295624l-72.23285 72.23279l72.23285 72.23279l-33.295715 33.295654l-72.23279 -72.23279l-72.23279 72.23279l-33.295593 -33.295654l72.23279 -72.23279z" fill-rule="evenodd"/><path stroke="#a2bcb3" stroke-width="3.0" stroke-linejoin="round" stroke-linecap="butt" d="m844.38367 490.92206l33.295593 -33.295624l72.23279 72.23276l72.23279 -72.23276l33.295715 33.295624l-72.23285 72.23279l72.23285 72.23279l-33.295715 33.295654l-72.23279 -72.23279l-72.23279 72.23279l-33.295593 -33.295654l72.23279 -72.23279z" fill-rule="evenodd"/><path fill="#bebda7" d="m879.122 525.53314l33.228333 -33.228333l3.2125854 3.212616l-33.228333 33.228363z" fill-rule="evenodd"/><path stroke="#a2bcb3" stroke-width="3.0" stroke-linejoin="round" stroke-linecap="butt" d="m879.122 525.53314l33.228333 -33.228333l3.2125854 3.212616l-33.228333 33.228363z" fill-rule="evenodd"/><path fill="#bebda7" d="m914.9645 630.3607l-32.346436 -32.346497l-3.2440796 3.2441406l32.346436 32.346436z" fill-rule="evenodd"/><path stroke="#a2bcb3" stroke-width="3.0" stroke-linejoin="round" stroke-linecap="butt" d="m914.9645 630.3607l-32.346436 -32.346497l-3.2440796 3.2441406l32.346436 32.346436z" fill-rule="evenodd"/><path fill="#dfddc5" d="m949.91187 529.2027l33.95276 33.95276l-33.95276 33.95276l-33.95276 -33.95276z" fill-rule="evenodd"/><path stroke="#a2bcb3" stroke-width="4.0" stroke-linejoin="round" stroke-linecap="butt" d="m949.91187 529.2027l33.95276 33.95276l-33.95276 33.95276l-33.95276 -33.95276z" fill-rule="evenodd"/><path fill="#d6d4bc" d="m632.654 490.92206l33.295654 -33.295624l72.23279 72.23276l72.23279 -72.23276l33.295593 33.295624l-72.23279 72.23279l72.23279 72.23279l-33.295593 33.295654l-72.23279 -72.23279l-72.23279 72.23279l-33.295654 -33.295654l72.23279 -72.23279z" fill-rule="evenodd"/><path stroke="#a2bcb3" stroke-width="3.0" stroke-linejoin="round" stroke-linecap="butt" d="m632.654 490.92206l33.295654 -33.295624l72.23279 72.23276l72.23279 -72.23276l33.295593 33.295624l-72.23279 72.23279l72.23279 72.23279l-33.295593 33.295654l-72.23279 -72.23279l-72.23279 72.23279l-33.295654 -33.295654l72.23279 -72.23279z" fill-rule="evenodd"/><path fill="#bebda7" d="m667.39233 525.53314l33.228333 -33.228333l3.2126465 3.212616l-33.228394 33.228363z" fill-rule="evenodd"/><path stroke="#a2bcb3" stroke-width="3.0" stroke-linejoin="round" stroke-linecap="butt" d="m667.39233 525.53314l33.228333 -33.228333l3.2126465 3.212616l-33.228394 33.228363z" fill-rule="evenodd"/><path fill="#bebda7" d="m810.16144 525.1207l-33.039368 -33.039368l-3.4331055 3.433075l33.039368 33.0394z" fill-rule="evenodd"/><path stroke="#a2bcb3" stroke-width="3.0" stroke-linejoin="round" stroke-linecap="butt" d="m810.16144 525.1207l-33.039368 -33.039368l-3.4331055 3.433075l33.039368 33.0394z" fill-rule="evenodd"/><path fill="#bebda7" d="m773.3111 630.0932l32.75592 -32.75592l2.86615 2.86615l-32.75592 32.75592z" fill-rule="evenodd"/><path stroke="#a2bcb3" stroke-width="3.0" stroke-linejoin="round" stroke-linecap="butt" d="m773.3111 630.0932l32.75592 -32.75592l2.86615 2.86615l-32.75592 32.75592z" fill-rule="evenodd"/><path fill="#bebda7" d="m703.23486 630.3607l-32.346497 -32.346497l-3.2440796 3.2441406l32.346436 32.346436z" fill-rule="evenodd"/><path stroke="#a2bcb3" stroke-width="3.0" stroke-linejoin="round" stroke-linecap="butt" d="m703.23486 630.3607l-32.346497 -32.346497l-3.2440796 3.2441406l32.346436 32.346436z" fill-rule="evenodd"/><path fill="#bebda7" d="m738.1822 529.2027l33.95276 33.95276l-33.95276 33.95276l-33.95276 -33.95276z" fill-rule="evenodd"/><path stroke="#a2bcb3" stroke-width="4.0" stroke-linejoin="round" stroke-linecap="butt" d="m738.1822 529.2027l33.95276 33.95276l-33.95276 33.95276l-33.95276 -33.95276z" fill-rule="evenodd"/><path fill="#bebda7" d="m349.9383 419.4728l33.228333 -33.228363l3.2125854 3.212616l-33.228333 33.228333z" fill-rule="evenodd"/><path stroke="#a2bcb3" stroke-width="3.0" stroke-linejoin="round" stroke-linecap="butt" d="m349.9383 419.4728l33.228333 -33.228363l3.2125854 3.212616l-33.228333 33.228333z" fill-rule="evenodd"/><path fill="#bebda7" d="m492.70734 419.06036l-33.039368 -33.039368l-3.4330444 3.433075l33.039368 33.039368z" fill-rule="evenodd"/><path stroke="#a2bcb3" stroke-width="3.0" stroke-linejoin="round" stroke-linecap="butt" d="m492.70734 419.06036l-33.039368 -33.039368l-3.4330444 3.433075l33.039368 33.039368z" fill-rule="evenodd"/><path fill="#bebda7" d="m455.85706 524.03284l32.75589 -32.75592l2.86615 2.86615l-32.75592 32.75592z" fill-rule="evenodd"/><path stroke="#a2bcb3" stroke-width="3.0" stroke-linejoin="round" stroke-linecap="butt" d="m455.85706 524.03284l32.75589 -32.75592l2.86615 2.86615l-32.75592 32.75592z" fill-rule="evenodd"/><path fill="#bebda7" d="m385.78076 524.30035l-32.346436 -32.346466l-3.24411 3.2440796l32.346466 32.346466z" fill-rule="evenodd"/><path stroke="#a2bcb3" stroke-width="3.0" stroke-linejoin="round" stroke-linecap="butt" d="m385.78076 524.30035l-32.346436 -32.346466l-3.24411 3.2440796l32.346466 32.346466z" fill-rule="evenodd"/><path fill="#bebda7" d="m420.72812 423.14236l33.95276 33.95276l-33.95276 33.95273l-33.95276 -33.95273z" fill-rule="evenodd"/><path stroke="#a2bcb3" stroke-width="4.0" stroke-linejoin="round" stroke-linecap="butt" d="m420.72812 423.14236l33.95276 33.95276l-33.95276 33.95273l-33.95276 -33.95273z" fill-rule="evenodd"/><path fill="#d6d4bc" d="m420.92432 491.7226l33.295654 -33.295654l72.23279 72.23279l72.23279 -72.23279l33.295654 33.295654l-72.23279 72.23279l72.23279 72.23279l-33.295654 33.295654l-72.23279 -72.23279l-72.23279 72.23279l-33.295654 -33.295654l72.23282 -72.23279z" fill-rule="evenodd"/><path stroke="#a2bcb3" stroke-width="3.0" stroke-linejoin="round" stroke-linecap="butt" d="m420.92432 491.7226l33.295654 -33.295654l72.23279 72.23279l72.23279 -72.23279l33.295654 33.295654l-72.23279 72.23279l72.23279 72.23279l-33.295654 33.295654l-72.23279 -72.23279l-72.23279 72.23279l-33.295654 -33.295654l72.23282 -72.23279z" fill-rule="evenodd"/><path fill="#bebda7" d="m455.6627 526.3337l33.228333 -33.228333l3.212616 3.2125854l-33.228363 33.228333z" fill-rule="evenodd"/><path stroke="#a2bcb3" stroke-width="3.0" stroke-linejoin="round" stroke-linecap="butt" d="m455.6627 526.3337l33.228333 -33.228333l3.212616 3.2125854l-33.228363 33.228333z" fill-rule="evenodd"/><path fill="#bebda7" d="m598.43176 525.92126l-33.039368 -33.039368l-3.4331055 3.433075l33.03943 33.039337z" fill-rule="evenodd"/><path stroke="#a2bcb3" stroke-width="3.0" stroke-linejoin="round" stroke-linecap="butt" d="m598.43176 525.92126l-33.039368 -33.039368l-3.4331055 3.433075l33.03943 33.039337z" fill-rule="evenodd"/><path fill="#bebda7" d="m561.5815 630.89374l32.75586 -32.75592l2.86615 2.86615l-32.75592 32.75592z" fill-rule="evenodd"/><path stroke="#a2bcb3" stroke-width="3.0" stroke-linejoin="round" stroke-linecap="butt" d="m561.5815 630.89374l32.75586 -32.75592l2.86615 2.86615l-32.75592 32.75592z" fill-rule="evenodd"/><path fill="#bebda7" d="m491.5052 631.16125l-32.346466 -32.346497l-3.2440796 3.2440796l32.346436 32.346497z" fill-rule="evenodd"/><path stroke="#a2bcb3" stroke-width="3.0" stroke-linejoin="round" stroke-linecap="butt" d="m491.5052 631.16125l-32.346466 -32.346497l-3.2440796 3.2440796l32.346436 32.346497z" fill-rule="evenodd"/><path fill="#bebda7" d="m526.4525 530.00323l33.95276 33.95276l-33.95276 33.95276l-33.95273 -33.95276z" fill-rule="evenodd"/><path stroke="#a2bcb3" stroke-width="4.0" stroke-linejoin="round" stroke-linecap="butt" d="m526.4525 530.00323l33.95276 33.95276l-33.95276 33.95276l-33.95273 -33.95276z" fill-rule="evenodd"/><path fill="#bebda7" d="m386.7021 525.92126l-33.039368 -33.039368l-3.433075 3.433075l33.0394 33.039337z" fill-rule="evenodd"/><path stroke="#a2bcb3" stroke-width="3.0" stroke-linejoin="round" stroke-linecap="butt" d="m386.7021 525.92126l-33.039368 -33.039368l-3.433075 3.433075l33.0394 33.039337z" fill-rule="evenodd"/><path fill="#bebda7" d="m349.8518 630.89374l32.75589 -32.75592l2.86615 2.86615l-32.75592 32.75592z" fill-rule="evenodd"/><path stroke="#a2bcb3" stroke-width="3.0" stroke-linejoin="round" stroke-linecap="butt" d="m349.8518 630.89374l32.75589 -32.75592l2.86615 2.86615l-32.75592 32.75592z" fill-rule="evenodd"/><path fill="#d6d4bc" d="m632.79443 277.79346l33.295593 -33.29564l72.23279 72.2328l72.23279 -72.2328l33.295654 33.29564l-72.23279 72.23279l72.23279 72.23279l-33.295654 33.295654l-72.23279 -72.23282l-72.23279 72.23282l-33.295593 -33.295654l72.23279 -72.23279z" fill-rule="evenodd"/><path stroke="#a2bcb3" stroke-width="3.0" stroke-linejoin="round" stroke-linecap="butt" d="m632.79443 277.79346l33.295593 -33.29564l72.23279 72.2328l72.23279 -72.2328l33.295654 33.29564l-72.23279 72.23279l72.23279 72.23279l-33.295654 33.295654l-72.23279 -72.23282l-72.23279 72.23282l-33.295593 -33.295654l72.23279 -72.23279z" fill-rule="evenodd"/><path fill="#bebda7" d="m667.5328 312.40454l33.228333 -33.228333l3.2125854 3.2125854l-33.228333 33.228363z" fill-rule="evenodd"/><path stroke="#a2bcb3" stroke-width="3.0" stroke-linejoin="round" stroke-linecap="butt" d="m667.5328 312.40454l33.228333 -33.228333l3.2125854 3.2125854l-33.228333 33.228363z" fill-rule="evenodd"/><path fill="#bebda7" d="m810.3018 311.99213l-33.039368 -33.039368l-3.4330444 3.433075l33.039368 33.039368z" fill-rule="evenodd"/><path stroke="#a2bcb3" stroke-width="3.0" stroke-linejoin="round" stroke-linecap="butt" d="m810.3018 311.99213l-33.039368 -33.039368l-3.4330444 3.433075l33.039368 33.039368z" fill-rule="evenodd"/><path fill="#bebda7" d="m773.2572 419.26544l33.228333 -33.228333l3.2125854 3.2125854l-33.228333 33.228363z" fill-rule="evenodd"/><path stroke="#a2bcb3" stroke-width="3.0" stroke-linejoin="round" stroke-linecap="butt" d="m773.2572 419.26544l33.228333 -33.228333l3.2125854 3.2125854l-33.228333 33.228363z" fill-rule="evenodd"/><path fill="#d6d4bc" d="m526.7892 384.65436l33.295593 -33.295654l72.23279 72.23279l72.23279 -72.23279l33.295654 33.295654l-72.23279 72.23279l72.23279 72.23279l-33.295654 33.295654l-72.23279 -72.23282l-72.23279 72.23282l-33.295593 -33.295654l72.23279 -72.23279z" fill-rule="evenodd"/><path stroke="#a2bcb3" stroke-width="3.0" stroke-linejoin="round" stroke-linecap="butt" d="m526.7892 384.65436l33.295593 -33.295654l72.23279 72.23279l72.23279 -72.23279l33.295654 33.295654l-72.23279 72.23279l72.23279 72.23279l-33.295654 33.295654l-72.23279 -72.23282l-72.23279 72.23282l-33.295593 -33.295654l72.23279 -72.23279z" fill-rule="evenodd"/><path fill="#bebda7" d="m561.5275 419.26544l33.228333 -33.228333l3.2125854 3.2125854l-33.228333 33.228363z" fill-rule="evenodd"/><path stroke="#a2bcb3" stroke-width="3.0" stroke-linejoin="round" stroke-linecap="butt" d="m561.5275 419.26544l33.228333 -33.228333l3.2125854 3.2125854l-33.228333 33.228363z" fill-rule="evenodd"/><path fill="#bebda7" d="m704.2966 418.85303l-33.039368 -33.039368l-3.4330444 3.4330444l33.039368 33.0394z" fill-rule="evenodd"/><path stroke="#a2bcb3" stroke-width="3.0" stroke-linejoin="round" stroke-linecap="butt" d="m704.2966 418.85303l-33.039368 -33.039368l-3.4330444 3.4330444l33.039368 33.0394z" fill-rule="evenodd"/><path fill="#bebda7" d="m667.4463 523.8255l32.75592 -32.75592l2.86615 2.86615l-32.75592 32.75592z" fill-rule="evenodd"/><path stroke="#a2bcb3" stroke-width="3.0" stroke-linejoin="round" stroke-linecap="butt" d="m667.4463 523.8255l32.75592 -32.75592l2.86615 2.86615l-32.75592 32.75592z" fill-rule="evenodd"/><path fill="#bebda7" d="m597.37 524.09296l-32.346436 -32.346436l-3.2440796 3.24411l32.346436 32.346466z" fill-rule="evenodd"/><path stroke="#a2bcb3" stroke-width="3.0" stroke-linejoin="round" stroke-linecap="butt" d="m597.37 524.09296l-32.346436 -32.346436l-3.2440796 3.24411l32.346436 32.346466z" fill-rule="evenodd"/><path fill="#bebda7" d="m632.3174 422.935l33.95276 33.95276l-33.95276 33.95276l-33.95276 -33.95276z" fill-rule="evenodd"/><path stroke="#a2bcb3" stroke-width="4.0" stroke-linejoin="round" stroke-linecap="butt" d="m632.3174 422.935l33.95276 33.95276l-33.95276 33.95276l-33.95276 -33.95276z" fill-rule="evenodd"/><path fill="#bebda7" d="m738.32263 316.0741l33.95276 33.95276l-33.95276 33.95276l-33.95276 -33.95276z" fill-rule="evenodd"/><path stroke="#a2bcb3" stroke-width="4.0" stroke-linejoin="round" stroke-linecap="butt" d="m738.32263 316.0741l33.95276 33.95276l-33.95276 33.95276l-33.95276 -33.95276z" fill-rule="evenodd"/><path fill="#bebda7" d="m386.7021 525.73755l-33.039368 -33.0394l-3.433075 3.433075l33.0394 33.039368z" fill-rule="evenodd"/><path stroke="#a2bcb3" stroke-width="3.0" stroke-linejoin="round" stroke-linecap="butt" d="m386.7021 525.73755l-33.039368 -33.0394l-3.433075 3.433075l33.0394 33.039368z" fill-rule="evenodd"/><path fill="#bebda7" d="m349.65744 633.01086l33.228333 -33.228333l3.212616 3.2125854l-33.228363 33.228333z" fill-rule="evenodd"/><path stroke="#a2bcb3" stroke-width="3.0" stroke-linejoin="round" stroke-linecap="butt" d="m349.65744 633.01086l33.228333 -33.228333l3.212616 3.2125854l-33.228363 33.228333z" fill-rule="evenodd"/><path fill="#d6d4bc" d="m527.50964 596.00214l33.295593 -33.295654l72.23285 72.23279l72.23279 -72.23279l33.295593 33.295654l-72.23279 72.23279l72.23279 72.23279l-33.295593 33.295593l-72.23279 -72.23279l-72.23285 72.23279l-33.295593 -33.295593l72.23279 -72.23279z" fill-rule="evenodd"/><path stroke="#a2bcb3" stroke-width="3.0" stroke-linejoin="round" stroke-linecap="butt" d="m527.50964 596.00214l33.295593 -33.295654l72.23285 72.23279l72.23279 -72.23279l33.295593 33.295654l-72.23279 72.23279l72.23279 72.23279l-33.295593 33.295593l-72.23279 -72.23279l-72.23285 72.23279l-33.295593 -33.295593l72.23279 -72.23279z" fill-rule="evenodd"/><path fill="#bebda7" d="m562.248 630.6132l33.228333 -33.228333l3.2126465 3.2125854l-33.228394 33.228333z" fill-rule="evenodd"/><path stroke="#a2bcb3" stroke-width="3.0" stroke-linejoin="round" stroke-linecap="butt" d="m562.248 630.6132l33.228333 -33.228333l3.2126465 3.2125854l-33.228394 33.228333z" fill-rule="evenodd"/><path fill="#bebda7" d="m705.0171 630.2008l-33.03943 -33.039368l-3.4330444 3.4330444l33.039368 33.039368z" fill-rule="evenodd"/><path stroke="#a2bcb3" stroke-width="3.0" stroke-linejoin="round" stroke-linecap="butt" d="m705.0171 630.2008l-33.03943 -33.039368l-3.4330444 3.4330444l33.039368 33.039368z" fill-rule="evenodd"/><path fill="#bebda7" d="m668.16675 735.1733l32.75592 -32.75592l2.86615 2.86615l-32.75592 32.75586z" fill-rule="evenodd"/><path stroke="#a2bcb3" stroke-width="3.0" stroke-linejoin="round" stroke-linecap="butt" d="m668.16675 735.1733l32.75592 -32.75592l2.86615 2.86615l-32.75592 32.75586z" fill-rule="evenodd"/><path fill="#bebda7" d="m598.0905 735.44073l-32.346497 -32.346436l-3.2440796 3.2440796l32.346436 32.346497z" fill-rule="evenodd"/><path stroke="#a2bcb3" stroke-width="3.0" stroke-linejoin="round" stroke-linecap="butt" d="m598.0905 735.44073l-32.346497 -32.346436l-3.2440796 3.2440796l32.346436 32.346497z" fill-rule="evenodd"/><path fill="#bebda7" d="m633.03784 634.2828l33.95276 33.95276l-33.95276 33.95276l-33.95276 -33.95276z" fill-rule="evenodd"/><path stroke="#a2bcb3" stroke-width="4.0" stroke-linejoin="round" stroke-linecap="butt" d="m633.03784 634.2828l33.95276 33.95276l-33.95276 33.95276l-33.95276 -33.95276z" fill-rule="evenodd"/><path fill="#d6d4bc" d="m740.13824 598.39716l33.295654 -33.295654l72.23279 72.23279l72.23279 -72.23279l33.295593 33.295654l-72.23279 72.23279l72.23279 72.23279l-33.295593 33.295593l-72.23279 -72.23279l-72.23279 72.23279l-33.295654 -33.295593l72.23279 -72.23279z" fill-rule="evenodd"/><path stroke="#a2bcb3" stroke-width="3.0" stroke-linejoin="round" stroke-linecap="butt" d="m740.13824 598.39716l33.295654 -33.295654l72.23279 72.23279l72.23279 -72.23279l33.295593 33.295654l-72.23279 72.23279l72.23279 72.23279l-33.295593 33.295593l-72.23279 -72.23279l-72.23279 72.23279l-33.295654 -33.295593l72.23279 -72.23279z" fill-rule="evenodd"/><path fill="#bebda7" d="m774.8766 633.00824l33.228333 -33.228333l3.2126465 3.2125854l-33.228394 33.228333z" fill-rule="evenodd"/><path stroke="#a2bcb3" stroke-width="3.0" stroke-linejoin="round" stroke-linecap="butt" d="m774.8766 633.00824l33.228333 -33.228333l3.2126465 3.2125854l-33.228394 33.228333z" fill-rule="evenodd"/><path fill="#bebda7" d="m917.6457 632.5958l-33.039368 -33.039368l-3.4331055 3.4330444l33.039368 33.039368z" fill-rule="evenodd"/><path stroke="#a2bcb3" stroke-width="3.0" stroke-linejoin="round" stroke-linecap="butt" d="m917.6457 632.5958l-33.039368 -33.039368l-3.4331055 3.4330444l33.039368 33.039368z" fill-rule="evenodd"/><path fill="#bebda7" d="m880.79535 737.5683l32.75592 -32.75592l2.86615 2.86615l-32.75592 32.75586z" fill-rule="evenodd"/><path stroke="#a2bcb3" stroke-width="3.0" stroke-linejoin="round" stroke-linecap="butt" d="m880.79535 737.5683l32.75592 -32.75592l2.86615 2.86615l-32.75592 32.75586z" fill-rule="evenodd"/><path fill="#bebda7" d="m810.7191 737.83575l-32.346497 -32.346436l-3.2440796 3.2440796l32.346436 32.346436z" fill-rule="evenodd"/><path stroke="#a2bcb3" stroke-width="3.0" stroke-linejoin="round" stroke-linecap="butt" d="m810.7191 737.83575l-32.346497 -32.346436l-3.2440796 3.2440796l32.346436 32.346436z" fill-rule="evenodd"/><path fill="#bebda7" d="m845.66644 636.6778l33.95276 33.95276l-33.95276 33.95276l-33.95276 -33.95276z" fill-rule="evenodd"/><path stroke="#a2bcb3" stroke-width="4.0" stroke-linejoin="round" stroke-linecap="butt" d="m845.66644 636.6778l33.95276 33.95276l-33.95276 33.95276l-33.95276 -33.95276z" fill-rule="evenodd"/><path fill="#d6d4bc" d="m105.2301 172.51262l33.29564 -33.29564l72.23279 72.23279l72.2328 -72.23279l33.295624 33.29564l-72.23279 72.23279l72.23279 72.2328l-33.295624 33.295624l-72.2328 -72.23279l-72.23279 72.23279l-33.29564 -33.295624l72.23279 -72.2328z" fill-rule="evenodd"/><path stroke="#a2bcb3" stroke-width="3.0" stroke-linejoin="round" stroke-linecap="butt" d="m105.2301 172.51262l33.29564 -33.29564l72.23279 72.23279l72.2328 -72.23279l33.295624 33.29564l-72.23279 72.23279l72.23279 72.2328l-33.295624 33.295624l-72.2328 -72.23279l-72.23279 72.23279l-33.29564 -33.295624l72.23279 -72.2328z" fill-rule="evenodd"/><path fill="#bebda7" d="m139.96846 207.12372l33.228348 -33.228348l3.2126007 3.2126007l-33.228348 33.228348z" fill-rule="evenodd"/><path stroke="#a2bcb3" stroke-width="3.0" stroke-linejoin="round" stroke-linecap="butt" d="m139.96846 207.12372l33.228348 -33.228348l3.2126007 3.2126007l-33.228348 33.228348z" fill-rule="evenodd"/><path fill="#bebda7" d="m282.73755 206.71129l-33.039383 -33.039368l-3.433075 3.4330597l33.039383 33.039383z" fill-rule="evenodd"/><path stroke="#a2bcb3" stroke-width="3.0" stroke-linejoin="round" stroke-linecap="butt" d="m282.73755 206.71129l-33.039383 -33.039368l-3.433075 3.4330597l33.039383 33.039383z" fill-rule="evenodd"/><path fill="#bebda7" d="m245.88724 311.68375l32.75589 -32.75589l2.86615 2.8661194l-32.755905 32.75592z" fill-rule="evenodd"/><path stroke="#a2bcb3" stroke-width="3.0" stroke-linejoin="round" stroke-linecap="butt" d="m245.88724 311.68375l32.75589 -32.75589l2.86615 2.8661194l-32.755905 32.75592z" fill-rule="evenodd"/><path fill="#bebda7" d="m175.81096 311.95126l-32.34645 -32.346466l-3.2440948 3.2440796l32.34645 32.346466z" fill-rule="evenodd"/><path stroke="#a2bcb3" stroke-width="3.0" stroke-linejoin="round" stroke-linecap="butt" d="m175.81096 311.95126l-32.34645 -32.346466l-3.2440948 3.2440796l32.34645 32.346466z" fill-rule="evenodd"/><path fill="#bebda7" d="m210.7583 210.79327l33.95276 33.95276l-33.95276 33.95276l-33.95276 -33.95276z" fill-rule="evenodd"/><path stroke="#a2bcb3" stroke-width="4.0" stroke-linejoin="round" stroke-linecap="butt" d="m210.7583 210.79327l33.95276 33.95276l-33.95276 33.95276l-33.95276 -33.95276z" fill-rule="evenodd"/><path fill="#d6d4bc" d="m-1.5297385 279.8512l33.295635 -33.29564l72.23279 72.2328l72.23279 -72.2328l33.29564 33.29564l-72.23279 72.23279l72.23279 72.23279l-33.29564 33.295654l-72.23279 -72.23279l-72.23279 72.23279l-33.295635 -33.295654l72.232796 -72.23279z" fill-rule="evenodd"/><path stroke="#a2bcb3" stroke-width="3.0" stroke-linejoin="round" stroke-linecap="butt" d="m-1.5297385 279.8512l33.295635 -33.29564l72.23279 72.2328l72.23279 -72.2328l33.29564 33.29564l-72.23279 72.23279l72.23279 72.23279l-33.29564 33.295654l-72.23279 -72.23279l-72.23279 72.23279l-33.295635 -33.295654l72.232796 -72.23279z" fill-rule="evenodd"/><path fill="#bebda7" d="m33.20862 314.4623l33.228348 -33.228363l3.2126007 3.212616l-33.228348 33.228333z" fill-rule="evenodd"/><path stroke="#a2bcb3" stroke-width="3.0" stroke-linejoin="round" stroke-linecap="butt" d="m33.20862 314.4623l33.228348 -33.228363l3.2126007 3.212616l-33.228348 33.228333z" fill-rule="evenodd"/><path fill="#bebda7" d="m175.97769 314.04987l-33.039368 -33.039368l-3.433075 3.433075l33.039368 33.039368z" fill-rule="evenodd"/><path stroke="#a2bcb3" stroke-width="3.0" stroke-linejoin="round" stroke-linecap="butt" d="m175.97769 314.04987l-33.039368 -33.039368l-3.433075 3.433075l33.039368 33.039368z" fill-rule="evenodd"/><path fill="#bebda7" d="m139.12738 419.02234l32.75592 -32.75592l2.8661346 2.86615l-32.755905 32.75592z" fill-rule="evenodd"/><path stroke="#a2bcb3" stroke-width="3.0" stroke-linejoin="round" stroke-linecap="butt" d="m139.12738 419.02234l32.75592 -32.75592l2.8661346 2.86615l-32.755905 32.75592z" fill-rule="evenodd"/><path fill="#bebda7" d="m69.05112 419.28983l-32.34646 -32.346436l-3.2440948 3.2440796l32.34646 32.346466z" fill-rule="evenodd"/><path stroke="#a2bcb3" stroke-width="3.0" stroke-linejoin="round" stroke-linecap="butt" d="m69.05112 419.28983l-32.34646 -32.346436l-3.2440948 3.2440796l32.34646 32.346466z" fill-rule="evenodd"/><path fill="#bebda7" d="m103.99846 318.13187l33.95276 33.95273l-33.95276 33.95276l-33.95275 -33.95276z" fill-rule="evenodd"/><path stroke="#a2bcb3" stroke-width="4.0" stroke-linejoin="round" stroke-linecap="butt" d="m103.99846 318.13187l33.95276 33.95273l-33.95276 33.95276l-33.95275 -33.95276z" fill-rule="evenodd"/><path fill="#d6d4bc" d="m209.19467 491.7226l33.29564 -33.295654l72.23277 72.23279l72.23282 -72.23279l33.295624 33.295654l-72.23279 72.23279l72.23279 72.23279l-33.295624 33.295654l-72.23282 -72.23279l-72.23277 72.23279l-33.29564 -33.295654l72.23279 -72.23279z" fill-rule="evenodd"/><path stroke="#a2bcb3" stroke-width="3.0" stroke-linejoin="round" stroke-linecap="butt" d="m209.19467 491.7226l33.29564 -33.295654l72.23277 72.23279l72.23282 -72.23279l33.295624 33.295654l-72.23279 72.23279l72.23279 72.23279l-33.295624 33.295654l-72.23282 -72.23279l-72.23277 72.23279l-33.29564 -33.295654l72.23279 -72.23279z" fill-rule="evenodd"/><path fill="#bebda7" d="m243.93303 526.3337l33.228348 -33.228333l3.2125854 3.2125854l-33.228333 33.228333z" fill-rule="evenodd"/><path stroke="#a2bcb3" stroke-width="3.0" stroke-linejoin="round" stroke-linecap="butt" d="m243.93303 526.3337l33.228348 -33.228333l3.2125854 3.2125854l-33.228333 33.228333z" fill-rule="evenodd"/><path fill="#bebda7" d="m279.7755 631.16125l-32.34645 -32.346497l-3.2440796 3.2440796l32.34645 32.346497z" fill-rule="evenodd"/><path stroke="#a2bcb3" stroke-width="3.0" stroke-linejoin="round" stroke-linecap="butt" d="m279.7755 631.16125l-32.34645 -32.346497l-3.2440796 3.2440796l32.34645 32.346497z" fill-rule="evenodd"/><path fill="#dfddc5" d="m314.72287 530.00323l33.95276 33.95276l-33.95276 33.95276l-33.95276 -33.95276z" fill-rule="evenodd"/><path stroke="#a2bcb3" stroke-width="4.0" stroke-linejoin="round" stroke-linecap="butt" d="m314.72287 530.00323l33.95276 33.95276l-33.95276 33.95276l-33.95276 -33.95276z" fill-rule="evenodd"/><path fill="#d6d4bc" d="m103.18942 385.45486l33.29564 -33.295624l72.23279 72.23279l72.2328 -72.23279l33.295624 33.295624l-72.23279 72.23279l72.23279 72.23282l-33.295624 33.295593l-72.2328 -72.23276l-72.23279 72.23276l-33.29564 -33.295593l72.23279 -72.23282z" fill-rule="evenodd"/><path stroke="#a2bcb3" stroke-width="3.0" stroke-linejoin="round" stroke-linecap="butt" d="m103.18942 385.45486l33.29564 -33.295624l72.23279 72.23279l72.2328 -72.23279l33.295624 33.295624l-72.23279 72.23279l72.23279 72.23282l-33.295624 33.295593l-72.2328 -72.23276l-72.23279 72.23276l-33.29564 -33.295593l72.23279 -72.23282z" fill-rule="evenodd"/><path fill="#bebda7" d="m137.92778 420.06598l33.228348 -33.228363l3.2126007 3.212616l-33.228348 33.228333z" fill-rule="evenodd"/><path stroke="#a2bcb3" stroke-width="3.0" stroke-linejoin="round" stroke-linecap="butt" d="m137.92778 420.06598l33.228348 -33.228363l3.2126007 3.212616l-33.228348 33.228333z" fill-rule="evenodd"/><path fill="#bebda7" d="m280.69684 419.65353l-33.039352 -33.039368l-3.433075 3.433075l33.039383 33.039368z" fill-rule="evenodd"/><path stroke="#a2bcb3" stroke-width="3.0" stroke-linejoin="round" stroke-linecap="butt" d="m280.69684 419.65353l-33.039352 -33.039368l-3.433075 3.433075l33.039383 33.039368z" fill-rule="evenodd"/><path fill="#bebda7" d="m208.71762 423.73553l33.95276 33.95276l-33.95276 33.95276l-33.95276 -33.95276z" fill-rule="evenodd"/><path stroke="#a2bcb3" stroke-width="4.0" stroke-linejoin="round" stroke-linecap="butt" d="m208.71762 423.73553l33.95276 33.95276l-33.95276 33.95276l-33.95276 -33.95276z" fill-rule="evenodd"/><path fill="#bebda7" d="m243.65219 526.9269l33.228333 -33.228363l3.212616 3.212616l-33.228348 33.228333z" fill-rule="evenodd"/><path stroke="#a2bcb3" stroke-width="3.0" stroke-linejoin="round" stroke-linecap="butt" d="m243.65219 526.9269l33.228333 -33.228363l3.212616 3.212616l-33.228348 33.228333z" fill-rule="evenodd"/><path fill="#d6d4bc" d="m-2.8158278 492.31577l33.295635 -33.295624l72.232796 72.23279l72.23279 -72.23279l33.29564 33.295624l-72.23279 72.23282l72.23279 72.23279l-33.29564 33.295593l-72.23279 -72.23279l-72.232796 72.23279l-33.295635 -33.295593l72.23279 -72.23279z" fill-rule="evenodd"/><path stroke="#a2bcb3" stroke-width="3.0" stroke-linejoin="round" stroke-linecap="butt" d="m-2.8158278 492.31577l33.295635 -33.295624l72.232796 72.23279l72.23279 -72.23279l33.29564 33.295624l-72.23279 72.23282l72.23279 72.23279l-33.29564 33.295593l-72.23279 -72.23279l-72.232796 72.23279l-33.295635 -33.295593l72.23279 -72.23279z" fill-rule="evenodd"/><path fill="#bebda7" d="m31.922531 526.9269l33.228348 -33.228363l3.212593 3.212616l-33.228344 33.228333z" fill-rule="evenodd"/><path stroke="#a2bcb3" stroke-width="3.0" stroke-linejoin="round" stroke-linecap="butt" d="m31.922531 526.9269l33.228348 -33.228363l3.212593 3.212616l-33.228344 33.228333z" fill-rule="evenodd"/><path fill="#bebda7" d="m174.6916 526.51447l-33.039368 -33.0394l-3.433075 3.433075l33.039368 33.039368z" fill-rule="evenodd"/><path stroke="#a2bcb3" stroke-width="3.0" stroke-linejoin="round" stroke-linecap="butt" d="m174.6916 526.51447l-33.039368 -33.0394l-3.433075 3.433075l33.039368 33.039368z" fill-rule="evenodd"/><path fill="#bebda7" d="m137.8413 631.4869l32.755905 -32.75586l2.86615 2.86615l-32.755905 32.75586z" fill-rule="evenodd"/><path stroke="#a2bcb3" stroke-width="3.0" stroke-linejoin="round" stroke-linecap="butt" d="m137.8413 631.4869l32.755905 -32.75586l2.86615 2.86615l-32.755905 32.75586z" fill-rule="evenodd"/><path fill="#bebda7" d="m67.76503 631.7544l-32.34646 -32.346436l-3.2440948 3.2440796l32.34646 32.346436z" fill-rule="evenodd"/><path stroke="#a2bcb3" stroke-width="3.0" stroke-linejoin="round" stroke-linecap="butt" d="m67.76503 631.7544l-32.34646 -32.346436l-3.2440948 3.2440796l32.34646 32.346436z" fill-rule="evenodd"/><path fill="#bebda7" d="m102.71237 530.59644l33.95276 33.95276l-33.95276 33.95276l-33.95276 -33.95276z" fill-rule="evenodd"/><path stroke="#a2bcb3" stroke-width="4.0" stroke-linejoin="round" stroke-linecap="butt" d="m102.71237 530.59644l33.95276 33.95276l-33.95276 33.95276l-33.95276 -33.95276z" fill-rule="evenodd"/><path fill="#d6d4bc" d="m209.19467 491.53885l33.29564 -33.295624l72.23277 72.23279l72.23282 -72.23279l33.295624 33.295624l-72.23279 72.23282l72.23279 72.23279l-33.295624 33.295654l-72.23282 -72.23285l-72.23277 72.23285l-33.29564 -33.295654l72.23279 -72.23279z" fill-rule="evenodd"/><path stroke="#a2bcb3" stroke-width="3.0" stroke-linejoin="round" stroke-linecap="butt" d="m209.19467 491.53885l33.29564 -33.295624l72.23277 72.23279l72.23282 -72.23279l33.295624 33.295624l-72.23279 72.23282l72.23279 72.23279l-33.295624 33.295654l-72.23282 -72.23285l-72.23277 72.23285l-33.29564 -33.295654l72.23279 -72.23279z" fill-rule="evenodd"/><path fill="#bebda7" d="m243.93303 526.14996l33.228348 -33.228333l3.2125854 3.2125854l-33.228333 33.228333z" fill-rule="evenodd"/><path stroke="#a2bcb3" stroke-width="3.0" stroke-linejoin="round" stroke-linecap="butt" d="m243.93303 526.14996l33.228348 -33.228333l3.2125854 3.2125854l-33.228333 33.228333z" fill-rule="evenodd"/><path fill="#dfddc5" d="m314.72287 529.8195l33.95276 33.95276l-33.95276 33.95276l-33.95276 -33.95276z" fill-rule="evenodd"/><path stroke="#a2bcb3" stroke-width="4.0" stroke-linejoin="round" stroke-linecap="butt" d="m314.72287 529.8195l33.95276 33.95276l-33.95276 33.95276l-33.95276 -33.95276z" fill-rule="evenodd"/><path fill="#d6d4bc" d="m103.625114 598.39716l33.29563 -33.295654l72.2328 72.23279l72.23277 -72.23279l33.295654 33.295654l-72.2328 72.23279l72.2328 72.23279l-33.295654 33.295593l-72.23277 -72.23279l-72.2328 72.23279l-33.29563 -33.295593l72.232796 -72.23279z" fill-rule="evenodd"/><path stroke="#a2bcb3" stroke-width="3.0" stroke-linejoin="round" stroke-linecap="butt" d="m103.625114 598.39716l33.29563 -33.295654l72.2328 72.23279l72.23277 -72.23279l33.295654 33.295654l-72.2328 72.23279l72.2328 72.23279l-33.295654 33.295593l-72.23277 -72.23279l-72.2328 72.23279l-33.29563 -33.295593l72.232796 -72.23279z" fill-rule="evenodd"/><path fill="#bebda7" d="m138.36348 633.00824l33.228348 -33.228333l3.2125854 3.2125854l-33.228333 33.228333z" fill-rule="evenodd"/><path stroke="#a2bcb3" stroke-width="3.0" stroke-linejoin="round" stroke-linecap="butt" d="m138.36348 633.00824l33.228348 -33.228333l3.2125854 3.2125854l-33.228333 33.228333z" fill-rule="evenodd"/><path fill="#bebda7" d="m281.13254 632.5958l-33.039368 -33.039368l-3.4330597 3.4330444l33.039352 33.039368z" fill-rule="evenodd"/><path stroke="#a2bcb3" stroke-width="3.0" stroke-linejoin="round" stroke-linecap="butt" d="m281.13254 632.5958l-33.039368 -33.039368l-3.4330597 3.4330444l33.039352 33.039368z" fill-rule="evenodd"/><path fill="#bebda7" d="m244.28224 737.5683l32.755905 -32.75592l2.86615 2.86615l-32.755905 32.75586z" fill-rule="evenodd"/><path stroke="#a2bcb3" stroke-width="3.0" stroke-linejoin="round" stroke-linecap="butt" d="m244.28224 737.5683l32.755905 -32.75592l2.86615 2.86615l-32.755905 32.75586z" fill-rule="evenodd"/><path fill="#bebda7" d="m174.20598 737.83575l-32.346466 -32.346436l-3.2440948 3.2440796l32.346466 32.346436z" fill-rule="evenodd"/><path stroke="#a2bcb3" stroke-width="3.0" stroke-linejoin="round" stroke-linecap="butt" d="m174.20598 737.83575l-32.346466 -32.346436l-3.2440948 3.2440796l32.346466 32.346436z" fill-rule="evenodd"/><path fill="#bebda7" d="m209.15332 636.6778l33.95276 33.95276l-33.95276 33.95276l-33.95276 -33.95276z" fill-rule="evenodd"/><path stroke="#a2bcb3" stroke-width="4.0" stroke-linejoin="round" stroke-linecap="butt" d="m209.15332 636.6778l33.95276 33.95276l-33.95276 33.95276l-33.95276 -33.95276z" fill-rule="evenodd"/><path fill="#d6d4bc" d="m315.51227 598.39716l33.295624 -33.295654l72.23279 72.23279l72.23279 -72.23279l33.295624 33.295654l-72.23279 72.23279l72.23279 72.23279l-33.295624 33.295593l-72.23279 -72.23279l-72.23279 72.23279l-33.295624 -33.295593l72.23279 -72.23279z" fill-rule="evenodd"/><path stroke="#a2bcb3" stroke-width="3.0" stroke-linejoin="round" stroke-linecap="butt" d="m315.51227 598.39716l33.295624 -33.295654l72.23279 72.23279l72.23279 -72.23279l33.295624 33.295654l-72.23279 72.23279l72.23279 72.23279l-33.295624 33.295593l-72.23279 -72.23279l-72.23279 72.23279l-33.295624 -33.295593l72.23279 -72.23279z" fill-rule="evenodd"/><path fill="#bebda7" d="m350.2506 633.00824l33.228363 -33.228333l3.2125854 3.2125854l-33.228333 33.228333z" fill-rule="evenodd"/><path stroke="#a2bcb3" stroke-width="3.0" stroke-linejoin="round" stroke-linecap="butt" d="m350.2506 633.00824l33.228363 -33.228333l3.2125854 3.2125854l-33.228333 33.228333z" fill-rule="evenodd"/><path fill="#bebda7" d="m493.01968 632.5958l-33.039368 -33.039368l-3.433075 3.4330444l33.039368 33.039368z" fill-rule="evenodd"/><path stroke="#a2bcb3" stroke-width="3.0" stroke-linejoin="round" stroke-linecap="butt" d="m493.01968 632.5958l-33.039368 -33.039368l-3.433075 3.4330444l33.039368 33.039368z" fill-rule="evenodd"/><path fill="#bebda7" d="m456.16937 737.5683l32.75592 -32.75592l2.86615 2.86615l-32.75592 32.75586z" fill-rule="evenodd"/><path stroke="#a2bcb3" stroke-width="3.0" stroke-linejoin="round" stroke-linecap="butt" d="m456.16937 737.5683l32.75592 -32.75592l2.86615 2.86615l-32.75592 32.75586z" fill-rule="evenodd"/><path fill="#bebda7" d="m386.0931 737.83575l-32.346466 -32.346436l-3.2440796 3.2440796l32.346466 32.346436z" fill-rule="evenodd"/><path stroke="#a2bcb3" stroke-width="3.0" stroke-linejoin="round" stroke-linecap="butt" d="m386.0931 737.83575l-32.346466 -32.346436l-3.2440796 3.2440796l32.346466 32.346436z" fill-rule="evenodd"/><path fill="#bebda7" d="m421.04047 636.6778l33.95276 33.95276l-33.95276 33.95276l-33.95276 -33.95276z" fill-rule="evenodd"/><path stroke="#a2bcb3" stroke-width="4.0" stroke-linejoin="round" stroke-linecap="butt" d="m421.04047 636.6778l33.95276 33.95276l-33.95276 33.95276l-33.95276 -33.95276z" fill-rule="evenodd"/><path fill="#d6d4bc" d="m-2.070421 704.78033l33.295635 -33.295654l72.232796 72.23279l72.23279 -72.23279l33.29564 33.295654l-72.23279 72.23279l72.23279 72.23279l-33.29564 33.295654l-72.23279 -72.23279l-72.232796 72.23279l-33.295635 -33.295654l72.23279 -72.23279z" fill-rule="evenodd"/><path stroke="#a2bcb3" stroke-width="3.0" stroke-linejoin="round" stroke-linecap="butt" d="m-2.070421 704.78033l33.295635 -33.295654l72.232796 72.23279l72.23279 -72.23279l33.29564 33.295654l-72.23279 72.23279l72.23279 72.23279l-33.29564 33.295654l-72.23279 -72.23279l-72.232796 72.23279l-33.295635 -33.295654l72.23279 -72.23279z" fill-rule="evenodd"/><path fill="#bebda7" d="m32.66794 739.3914l33.228348 -33.228333l3.212593 3.2125854l-33.228344 33.228333z" fill-rule="evenodd"/><path stroke="#a2bcb3" stroke-width="3.0" stroke-linejoin="round" stroke-linecap="butt" d="m32.66794 739.3914l33.228348 -33.228333l3.212593 3.2125854l-33.228344 33.228333z" fill-rule="evenodd"/><path fill="#bebda7" d="m175.43701 738.979l-33.039368 -33.039368l-3.433075 3.4330444l33.039368 33.039368z" fill-rule="evenodd"/><path stroke="#a2bcb3" stroke-width="3.0" stroke-linejoin="round" stroke-linecap="butt" d="m175.43701 738.979l-33.039368 -33.039368l-3.433075 3.4330444l33.039368 33.039368z" fill-rule="evenodd"/><path fill="#bebda7" d="m138.5867 843.9515l32.755905 -32.75592l2.86615 2.86615l-32.755905 32.75592z" fill-rule="evenodd"/><path stroke="#a2bcb3" stroke-width="3.0" stroke-linejoin="round" stroke-linecap="butt" d="m138.5867 843.9515l32.755905 -32.75592l2.86615 2.86615l-32.755905 32.75592z" fill-rule="evenodd"/><path fill="#bebda7" d="m68.51044 844.219l-32.34646 -32.346497l-3.2440948 3.2440796l32.34646 32.346497z" fill-rule="evenodd"/><path stroke="#a2bcb3" stroke-width="3.0" stroke-linejoin="round" stroke-linecap="butt" d="m68.51044 844.219l-32.34646 -32.346497l-3.2440948 3.2440796l32.34646 32.346497z" fill-rule="evenodd"/><path fill="#bebda7" d="m103.45778 743.061l33.95276 33.95276l-33.95276 33.95276l-33.95276 -33.95276z" fill-rule="evenodd"/><path stroke="#a2bcb3" stroke-width="4.0" stroke-linejoin="round" stroke-linecap="butt" d="m103.45778 743.061l33.95276 33.95276l-33.95276 33.95276l-33.95276 -33.95276z" fill-rule="evenodd"/><path fill="#d6d4bc" d="m315.56738 171.32626l33.295624 -33.29564l72.23279 72.2328l72.23279 -72.2328l33.295624 33.29564l-72.23276 72.23279l72.23276 72.23279l-33.295624 33.295654l-72.23279 -72.23282l-72.23279 72.23282l-33.295624 -33.295654l72.23279 -72.23279z" fill-rule="evenodd"/><path stroke="#a2bcb3" stroke-width="3.0" stroke-linejoin="round" stroke-linecap="butt" d="m315.56738 171.32626l33.295624 -33.29564l72.23279 72.2328l72.23279 -72.2328l33.295624 33.29564l-72.23276 72.23279l72.23276 72.23279l-33.295624 33.295654l-72.23279 -72.23282l-72.23279 72.23282l-33.295624 -33.295654l72.23279 -72.23279z" fill-rule="evenodd"/><path fill="#bebda7" d="m350.30573 205.93736l33.228363 -33.228348l3.2125854 3.2126007l-33.228333 33.228348z" fill-rule="evenodd"/><path stroke="#a2bcb3" stroke-width="3.0" stroke-linejoin="round" stroke-linecap="butt" d="m350.30573 205.93736l33.228363 -33.228348l3.2125854 3.2126007l-33.228333 33.228348z" fill-rule="evenodd"/><path fill="#bebda7" d="m493.0748 205.52493l-33.039368 -33.039368l-3.433075 3.433075l33.039368 33.039368z" fill-rule="evenodd"/><path stroke="#a2bcb3" stroke-width="3.0" stroke-linejoin="round" stroke-linecap="butt" d="m493.0748 205.52493l-33.039368 -33.039368l-3.433075 3.433075l33.039368 33.039368z" fill-rule="evenodd"/><path fill="#bebda7" d="m456.2245 310.4974l32.75592 -32.75592l2.86615 2.86615l-32.75592 32.75592z" fill-rule="evenodd"/><path stroke="#a2bcb3" stroke-width="3.0" stroke-linejoin="round" stroke-linecap="butt" d="m456.2245 310.4974l32.75592 -32.75592l2.86615 2.86615l-32.75592 32.75592z" fill-rule="evenodd"/><path fill="#bebda7" d="m386.14822 310.7649l-32.346466 -32.346436l-3.2440796 3.2440796l32.346466 32.346466z" fill-rule="evenodd"/><path stroke="#a2bcb3" stroke-width="3.0" stroke-linejoin="round" stroke-linecap="butt" d="m386.14822 310.7649l-32.346466 -32.346436l-3.2440796 3.2440796l32.346466 32.346466z" fill-rule="evenodd"/><path fill="#bebda7" d="m421.09558 209.60692l33.95276 33.95276l-33.95276 33.952744l-33.95276 -33.952744z" fill-rule="evenodd"/><path stroke="#a2bcb3" stroke-width="4.0" stroke-linejoin="round" stroke-linecap="butt" d="m421.09558 209.60692l33.95276 33.95276l-33.95276 33.952744l-33.95276 -33.952744z" fill-rule="evenodd"/><path fill="#d6d4bc" d="m527.5083 170.91156l33.295654 -33.295624l72.23279 72.23279l72.23279 -72.23279l33.295654 33.295624l-72.23279 72.2328l72.23279 72.23277l-33.295654 33.295654l-72.23279 -72.23279l-72.23279 72.23279l-33.295654 -33.295654l72.23279 -72.23277z" fill-rule="evenodd"/><path stroke="#a2bcb3" stroke-width="3.0" stroke-linejoin="round" stroke-linecap="butt" d="m527.5083 170.91156l33.295654 -33.295624l72.23279 72.23279l72.23279 -72.23279l33.295654 33.295624l-72.23279 72.2328l72.23279 72.23277l-33.295654 33.295654l-72.23279 -72.23279l-72.23279 72.23279l-33.295654 -33.295654l72.23279 -72.23277z" fill-rule="evenodd"/><path fill="#bebda7" d="m562.2467 205.52266l33.228333 -33.228333l3.2125854 3.2125854l-33.228333 33.228348z" fill-rule="evenodd"/><path stroke="#a2bcb3" stroke-width="3.0" stroke-linejoin="round" stroke-linecap="butt" d="m562.2467 205.52266l33.228333 -33.228333l3.2125854 3.2125854l-33.228333 33.228348z" fill-rule="evenodd"/><path fill="#bebda7" d="m705.01575 205.11023l-33.039368 -33.039368l-3.4330444 3.433075l33.039368 33.039368z" fill-rule="evenodd"/><path stroke="#a2bcb3" stroke-width="3.0" stroke-linejoin="round" stroke-linecap="butt" d="m705.01575 205.11023l-33.039368 -33.039368l-3.4330444 3.433075l33.039368 33.039368z" fill-rule="evenodd"/><path fill="#bebda7" d="m668.16547 310.0827l32.75586 -32.75589l2.86615 2.8661194l-32.75586 32.75592z" fill-rule="evenodd"/><path stroke="#a2bcb3" stroke-width="3.0" stroke-linejoin="round" stroke-linecap="butt" d="m668.16547 310.0827l32.75586 -32.75589l2.86615 2.8661194l-32.75586 32.75592z" fill-rule="evenodd"/><path fill="#bebda7" d="m598.0892 310.3502l-32.346436 -32.346436l-3.2441406 3.2440796l32.346497 32.346466z" fill-rule="evenodd"/><path stroke="#a2bcb3" stroke-width="3.0" stroke-linejoin="round" stroke-linecap="butt" d="m598.0892 310.3502l-32.346436 -32.346436l-3.2441406 3.2440796l32.346497 32.346466z" fill-rule="evenodd"/><path fill="#bebda7" d="m633.0365 209.19221l33.95276 33.95276l-33.95276 33.952774l-33.95276 -33.952774z" fill-rule="evenodd"/><path stroke="#a2bcb3" stroke-width="4.0" stroke-linejoin="round" stroke-linecap="butt" d="m633.0365 209.19221l33.95276 33.95276l-33.95276 33.952774l-33.95276 -33.952774z" fill-rule="evenodd"/><path fill="#bebda7" d="m1020.9921 523.09186l-33.039368 -33.039368l-3.4330444 3.433075l33.039368 33.0394z" fill-rule="evenodd"/><path stroke="#a2bcb3" stroke-width="3.0" stroke-linejoin="round" stroke-linecap="butt" d="m1020.9921 523.09186l-33.039368 -33.039368l-3.4330444 3.433075l33.039368 33.0394z" fill-rule="evenodd"/><path fill="#bebda7" d="m987.5014 631.5525l32.75592 -32.75586l2.86615 2.86615l-32.75592 32.75586z" fill-rule="evenodd"/><path stroke="#a2bcb3" stroke-width="3.0" stroke-linejoin="round" stroke-linecap="butt" d="m987.5014 631.5525l32.75592 -32.75586l2.86615 2.86615l-32.75592 32.75586z" fill-rule="evenodd"/><path fill="#bebda7" d="m386.11154 526.03674l-33.039368 -33.039368l-3.433075 3.433075l33.039368 33.039337z" fill-rule="evenodd"/><path stroke="#a2bcb3" stroke-width="3.0" stroke-linejoin="round" stroke-linecap="butt" d="m386.11154 526.03674l-33.039368 -33.039368l-3.433075 3.433075l33.039368 33.039337z" fill-rule="evenodd"/><path fill="#000e1b" d="m50.73491 32.637794l754.58264 0l0 171.02362l-754.58264 0z" fill-rule="evenodd"/><path fill="#a1b5ae" d="m-0.27559054 203.66142l854.83466 0l0 122.17323l-854.83466 0z" fill-rule="evenodd"/><path fill="#83b5bd" d="m-1.8425196 315.44913l103.42366 -101.07379l114.214134 0l-217.63779 212.6929z" fill-rule="evenodd"/><path stroke="#000000" stroke-width="8.0" stroke-linejoin="round" stroke-linecap="butt" d="m-1.8425196 315.44913l103.42366 -101.07379l114.214134 0l-217.63779 212.6929z" fill-rule="evenodd"/><path fill="#434343" d="m-29.889763 335.84756l130.92328 -121.47223l26.147583 0l-157.07086 145.73227z" fill-rule="evenodd"/><path stroke="#000000" stroke-width="8.0" stroke-linejoin="round" stroke-linecap="butt" d="m-29.889763 335.84756l130.92328 -121.47223l26.147583 0l-157.07086 145.73227z" fill-rule="evenodd"/><path fill="#a64d79" d="m97.06036 290.31497l-95.02362 92.94638l0 35.085114l95.02362 -92.94641z" fill-rule="evenodd"/><path fill="#83b5bd" d="m896.39703 214.38782l101.77356 104.13968l0 113.49811l-212.69293 -217.63779z" fill-rule="evenodd"/><path stroke="#000000" stroke-width="8.0" stroke-linejoin="round" stroke-linecap="butt" d="m896.39703 214.38782l101.77356 104.13968l0 113.49811l-212.69293 -217.63779z" fill-rule="evenodd"/><path fill="#434343" d="m1045.5511 343.11963l-147.17383 -128.7443l-29.393066 0l176.5669 154.4567z" fill-rule="evenodd"/><path stroke="#000000" stroke-width="8.0" stroke-linejoin="round" stroke-linecap="butt" d="m1045.5511 343.11963l-147.17383 -128.7443l-29.393066 0l176.5669 154.4567z" fill-rule="evenodd"/><path fill="#83b5bd" d="m100.80052 214.37534l794.89764 0l0 112.944885l-794.89764 0z" fill-rule="evenodd"/><path stroke="#000000" stroke-width="8.0" stroke-linejoin="round" stroke-linecap="butt" d="m100.80052 214.37534l794.89764 0l0 112.944885l-794.89764 0z" fill-rule="evenodd"/><path fill="#434343" d="m100.64304 234.26247l0.03149414 -19.874008l794.86615 0l-0.03149414 19.874008z" fill-rule="evenodd"/><path stroke="#000000" stroke-width="8.0" stroke-linejoin="round" stroke-linecap="butt" d="m100.64304 234.26247l0.03149414 -19.874008l794.86615 0l-0.03149414 19.874008z" fill-rule="evenodd"/><path fill="#a64d79" d="m104.70079 290.31497l786.9921 0l0 33.606293l-786.9921 0z" fill-rule="evenodd"/><path fill="#a64d79" d="m899.4304 291.60367l94.74017 97.01013l0 34.643433l-94.74017 -97.01013z" fill-rule="evenodd"/><path fill="#2a6f51" d="m127.1706 246.62466l741.8268 0l0 71.3071l-741.8268 0z" fill-rule="evenodd"/><path stroke="#000000" stroke-width="4.0" stroke-linejoin="round" stroke-linecap="butt" d="m127.1706 246.62466l741.8268 0l0 71.3071l-741.8268 0z" fill-rule="evenodd"/><defs><linearGradient id="p.1" gradientUnits="userSpaceOnUse" gradientTransform="matrix(7.610635484249408 0.0 0.0 7.610635484249408 0.0 0.0)" spreadMethod="pad" x1="45.88998766617209" y1="33.28461508830058" x2="45.88996072328488" y2="40.8952505725023"><stop offset="0.0" stop-color="#a3defa"/><stop offset="0.85" stop-color="#8ba9b7"/><stop offset="0.99999994" stop-color="#a3defa"/><stop offset="1.0" stop-color="#737373"/></linearGradient></defs><path fill="url(#p.1)" d="m349.25198 256.55655l0 0c0 -1.7888336 1.4501038 -3.238968 3.2389526 -3.238968l137.3016 0c0.8590088 0 1.6828613 0.34124756 2.2902832 0.94866943c0.6074219 0.6074219 0.94866943 1.4312592 0.94866943 2.2902985l0 51.44333c0 1.7888489 -1.4501343 3.2389526 -3.2389526 3.2389526l-137.3016 0c-1.7888489 0 -3.2389526 -1.4501038 -3.2389526 -3.2389526z" fill-rule="evenodd"/><path stroke="#000000" stroke-width="4.0" stroke-linejoin="round" stroke-linecap="butt" d="m349.25198 256.55655l0 0c0 -1.7888336 1.4501038 -3.238968 3.2389526 -3.238968l137.3016 0c0.8590088 0 1.6828613 0.34124756 2.2902832 0.94866943c0.6074219 0.6074219 0.94866943 1.4312592 0.94866943 2.2902985l0 51.44333c0 1.7888489 -1.4501343 3.2389526 -3.2389526 3.2389526l-137.3016 0c-1.7888489 0 -3.2389526 -1.4501038 -3.2389526 -3.2389526z" fill-rule="evenodd"/><defs><linearGradient id="p.2" gradientUnits="userSpaceOnUse" gradientTransform="matrix(7.61063683139365 0.0 0.0 7.61063683139365 0.0 0.0)" spreadMethod="pad" x1="25.67307516732345" y1="33.2846065023664" x2="25.67304822444101" y2="40.89524333371236"><stop offset="0.0" stop-color="#a3defa"/><stop offset="0.85" stop-color="#8ba9b7"/><stop offset="0.99999994" stop-color="#a3defa"/><stop offset="1.0" stop-color="#737373"/></linearGradient></defs><path fill="url(#p.2)" d="m195.38846 255.94778l0 0c0 -1.4526215 1.1775818 -2.6302032 2.6302032 -2.6302032l138.51912 0c0.6975708 0 1.3665771 0.27711487 1.8598328 0.7703705c0.49325562 0.49325562 0.7703552 1.162262 0.7703552 1.8598328l0 52.66086c0 1.4526062 -1.1775818 2.630188 -2.630188 2.630188l-138.51912 0c-1.4526215 0 -2.6302032 -1.1775818 -2.6302032 -2.630188z" fill-rule="evenodd"/><path stroke="#000000" stroke-width="4.0" stroke-linejoin="round" stroke-linecap="butt" d="m195.38846 255.94778l0 0c0 -1.4526215 1.1775818 -2.6302032 2.6302032 -2.6302032l138.51912 0c0.6975708 0 1.3665771 0.27711487 1.8598328 0.7703705c0.49325562 0.49325562 0.7703552 1.162262 0.7703552 1.8598328l0 52.66086c0 1.4526062 -1.1775818 2.630188 -2.630188 2.630188l-138.51912 0c-1.4526215 0 -2.6302032 -1.1775818 -2.6302032 -2.630188z" fill-rule="evenodd"/><defs><linearGradient id="p.3" gradientUnits="userSpaceOnUse" gradientTransform="matrix(7.589893527604195 0.0 0.0 7.589893527604195 0.0 0.0)" spreadMethod="pad" x1="106.83187013573136" y1="33.39636849287463" x2="106.83183771591003" y2="40.98626202040958"><stop offset="0.0" stop-color="#a3defa"/><stop offset="0.85" stop-color="#8ba9b7"/><stop offset="0.99999994" stop-color="#a3defa"/><stop offset="1.0" stop-color="#737373"/></linearGradient></defs><path fill="url(#p.3)" d="m810.8425 307.1733l0 -49.79019c0 -1.036499 0.41174316 -2.0305176 1.1446533 -2.7634125c0.7328491 -0.7328949 1.7269287 -1.1446381 2.7633667 -1.1446381l44.110107 0c1.572937 0 2.8480225 1.2750854 2.8480225 2.847992l0 51.91031c0 1.5729065 -1.2750854 2.847992 -2.8480225 2.847992l-44.110107 0l0 0c-2.1583252 0 -3.90802 -1.7496948 -3.90802 -3.9080505z" fill-rule="evenodd"/><path stroke="#000000" stroke-width="4.0" stroke-linejoin="round" stroke-linecap="butt" d="m810.8425 307.1733l0 -49.79019c0 -1.036499 0.41174316 -2.0305176 1.1446533 -2.7634125c0.7328491 -0.7328949 1.7269287 -1.1446381 2.7633667 -1.1446381l44.110107 0c1.572937 0 2.8480225 1.2750854 2.8480225 2.847992l0 51.91031c0 1.5729065 -1.2750854 2.847992 -2.8480225 2.847992l-44.110107 0l0 0c-2.1583252 0 -3.90802 -1.7496948 -3.90802 -3.9080505z" fill-rule="evenodd"/><defs><linearGradient id="p.4" gradientUnits="userSpaceOnUse" gradientTransform="matrix(7.58989352759608 0.0 0.0 7.58989352759608 0.0 0.0)" spreadMethod="pad" x1="17.712807132428104" y1="33.396368492910334" x2="17.712778765084433" y2="40.9862620204534"><stop offset="0.0" stop-color="#a3defa"/><stop offset="0.85" stop-color="#8ba9b7"/><stop offset="0.99999994" stop-color="#a3defa"/><stop offset="1.0" stop-color="#737373"/></linearGradient></defs><path fill="url(#p.4)" d="m185.30446 308.19928l0 -51.842133c0 -0.7643738 -0.3036499 -1.4974518 -0.84413147 -2.0379486c-0.5404968 -0.54048157 -1.2735596 -0.84413147 -2.0379333 -0.84413147l-44.999756 0c-1.6481934 0 -2.984314 1.3361206 -2.984314 2.984314l0 51.637665c0 1.6481934 1.3361206 2.984314 2.984314 2.984314l44.999756 0l0 0c1.5917206 0 2.8820648 -1.2903442 2.8820648 -2.88208z" fill-rule="evenodd"/><path stroke="#000000" stroke-width="4.0" stroke-linejoin="round" stroke-linecap="butt" d="m185.30446 308.19928l0 -51.842133c0 -0.7643738 -0.3036499 -1.4974518 -0.84413147 -2.0379486c-0.5404968 -0.54048157 -1.2735596 -0.84413147 -2.0379333 -0.84413147l-44.999756 0c-1.6481934 0 -2.984314 1.3361206 -2.984314 2.984314l0 51.637665c0 1.6481934 1.3361206 2.984314 2.984314 2.984314l44.999756 0l0 0c1.5917206 0 2.8820648 -1.2903442 2.8820648 -2.88208z" fill-rule="evenodd"/><defs><linearGradient id="p.5" gradientUnits="userSpaceOnUse" gradientTransform="matrix(7.610635484249408 0.0 0.0 7.610635484249408 0.0 0.0)" spreadMethod="pad" x1="86.32380357518407" y1="33.28461508830058" x2="86.32377663229687" y2="40.8952505725023"><stop offset="0.0" stop-color="#a3defa"/><stop offset="0.85" stop-color="#8ba9b7"/><stop offset="0.99999994" stop-color="#a3defa"/><stop offset="1.0" stop-color="#737373"/></linearGradient></defs><path fill="url(#p.5)" d="m656.979 255.65065l0 0c0 -1.2885132 1.0445557 -2.3330688 2.3330688 -2.3330688l139.1134 0c0.6187744 0 1.2121582 0.24580383 1.6497192 0.6833496c0.4375 0.43753052 0.6833496 1.0309601 0.6833496 1.6497192l0 53.25511c0 1.2885437 -1.0445557 2.3330688 -2.3330688 2.3330688l-139.1134 0l0 0c-1.2885132 0 -2.3330688 -1.0445251 -2.3330688 -2.3330688z" fill-rule="evenodd"/><path stroke="#000000" stroke-width="4.0" stroke-linejoin="round" stroke-linecap="butt" d="m656.979 255.65065l0 0c0 -1.2885132 1.0445557 -2.3330688 2.3330688 -2.3330688l139.1134 0c0.6187744 0 1.2121582 0.24580383 1.6497192 0.6833496c0.4375 0.43753052 0.6833496 1.0309601 0.6833496 1.6497192l0 53.25511c0 1.2885437 -1.0445557 2.3330688 -2.3330688 2.3330688l-139.1134 0l0 0c-1.2885132 0 -2.3330688 -1.0445251 -2.3330688 -2.3330688z" fill-rule="evenodd"/><defs><linearGradient id="p.6" gradientUnits="userSpaceOnUse" gradientTransform="matrix(7.610635484249408 0.0 0.0 7.610635484249408 0.0 0.0)" spreadMethod="pad" x1="66.10683095774878" y1="33.28461508830058" x2="66.10680401486157" y2="40.8952505725023"><stop offset="0.0" stop-color="#a3defa"/><stop offset="0.85" stop-color="#8ba9b7"/><stop offset="0.99999994" stop-color="#a3defa"/><stop offset="1.0" stop-color="#737373"/></linearGradient></defs><path fill="url(#p.6)" d="m503.11496 256.27332l0 0c0 -1.6324158 1.3233337 -2.9557343 2.955719 -2.9557343l137.8681 0c0.7838745 0 1.5357056 0.31141663 2.0899658 0.8657074c0.5543213 0.55430603 0.86572266 1.3061066 0.86572266 2.0900269l0 52.009796c0 1.6324158 -1.3233032 2.955719 -2.9556885 2.955719l-137.8681 0c-1.6323853 0 -2.955719 -1.3233032 -2.955719 -2.955719z" fill-rule="evenodd"/><path stroke="#000000" stroke-width="4.0" stroke-linejoin="round" stroke-linecap="butt" d="m503.11496 256.27332l0 0c0 -1.6324158 1.3233337 -2.9557343 2.955719 -2.9557343l137.8681 0c0.7838745 0 1.5357056 0.31141663 2.0899658 0.8657074c0.5543213 0.55430603 0.86572266 1.3061066 0.86572266 2.0900269l0 52.009796c0 1.6324158 -1.3233032 2.955719 -2.9556885 2.955719l-137.8681 0c-1.6323853 0 -2.955719 -1.3233032 -2.955719 -2.955719z" fill-rule="evenodd"/><path fill="#cfe2f3" d="m549.60895 72.46457l0 0c0 -1.0871735 0.8742676 -1.9685059 1.9527588 -1.9685059l0 0c0.5178833 0 1.0145874 0.20739746 1.3807983 0.576561c0.36621094 0.3691635 0.57196045 0.8698654 0.57196045 1.3919449l0 0c0 1.0871735 -0.8743286 1.9684982 -1.9527588 1.9684982l0 0c-1.0784912 0 -1.9527588 -0.88132477 -1.9527588 -1.9684982z" fill-rule="evenodd"/><path stroke="#000000" stroke-width="1.0" stroke-linejoin="round" stroke-linecap="butt" d="m549.60895 72.46457l0 0c0 -1.0871735 0.8742676 -1.9685059 1.9527588 -1.9685059l0 0c0.5178833 0 1.0145874 0.20739746 1.3807983 0.576561c0.36621094 0.3691635 0.57196045 0.8698654 0.57196045 1.3919449l0 0c0 1.0871735 -0.8743286 1.9684982 -1.9527588 1.9684982l0 0c-1.0784912 0 -1.9527588 -0.88132477 -1.9527588 -1.9684982z" fill-rule="evenodd"/><path fill="#cfe2f3" d="m573.7349 66.96326l0 0c0 -1.0871735 0.8742676 -1.9685059 1.9527588 -1.9685059l0 0c0.5178833 0 1.0145874 0.20739746 1.3807983 0.576561c0.36621094 0.3691635 0.57196045 0.8698654 0.57196045 1.3919449l0 0c0 1.0871735 -0.8743286 1.9684982 -1.9527588 1.9684982l0 0c-1.0784912 0 -1.9527588 -0.88132477 -1.9527588 -1.9684982z" fill-rule="evenodd"/><path stroke="#000000" stroke-width="1.0" stroke-linejoin="round" stroke-linecap="butt" d="m573.7349 66.96326l0 0c0 -1.0871735 0.8742676 -1.9685059 1.9527588 -1.9685059l0 0c0.5178833 0 1.0145874 0.20739746 1.3807983 0.576561c0.36621094 0.3691635 0.57196045 0.8698654 0.57196045 1.3919449l0 0c0 1.0871735 -0.8743286 1.9684982 -1.9527588 1.9684982l0 0c-1.0784912 0 -1.9527588 -0.88132477 -1.9527588 -1.9684982z" fill-rule="evenodd"/></g></svg>