<svg version="1.1" viewBox="0.0 0.0 1000.0 720.0" fill="none" stroke="none" stroke-linecap="square" stroke-miterlimit="10" xmlns:xlink="http://www.w3.org/1999/xlink" xmlns="http://www.w3.org/2000/svg"><clipPath id="p.0"><path d="m0 0l1000.0 0l0 720.0l-1000.0 0l0 -720.0z" clip-rule="nonzero"/></clipPath><g clip-path="url(#p.0)"><path fill="#000000" fill-opacity="0.0" d="m0 0l1000.0 0l0 720.0l-1000.0 0z" fill-rule="evenodd"/><path fill="#5b6862" d="m0 0l1000.0 0l0 720.0l-1000.0 0z" fill-rule="evenodd"/><defs><linearGradient id="p.1" gradientUnits="userSpaceOnUse" gradientTransform="matrix(29.041985570465965 0.0 0.0 29.041985570465965 0.0 0.0)" spreadMethod="pad" x1="31.737512856465443" y1="3.2583833164656526" x2="2.6955272867616507" y2="3.2581729119707656"><stop offset="0.0" stop-color="#000000"/><stop offset="0.51" stop-color="#434343"/><stop offset="1.0" stop-color="#000000"/></linearGradient></defs><path fill="url(#p.1)" d="m78.28346 94.62992l843.4331 0l0 530.7401l-843.4331 0z" fill-rule="evenodd"/><path stroke="#000000" stroke-width="3.0" stroke-linejoin="round" stroke-linecap="butt" d="m78.28346 94.62992l843.4331 0l0 530.7401l-843.4331 0z" fill-rule="evenodd"/><g filter="url(#shadowFilter-p.2)"><use xlink:href="#p.2" transform="matrix(1.0 0.0 0.0 1.0 5.130302099737537 14.095389501312331)"/></g><defs><filter id="shadowFilter-p.2" filterUnits="userSpaceOnUse"><feGaussianBlur in="SourceAlpha" stdDeviation="1.0" result="blur"/><feComponentTransfer in="blur" color-interpolation-filters="sRGB"><feFuncR type="linear" slope="0" intercept="0.0"/><feFuncG type="linear" slope="0" intercept="0.0"/><feFuncB type="linear" slope="0" intercept="0.0"/><feFuncA type="linear" slope="0.5" intercept="0"/></feComponentTransfer></filter></defs><g id="p.2"><path fill="#000000" fill-opacity="0.0" d="m378.56693 71.272964c0 53.559677 12.167999 106.40341 23.314972 158.361c5.4480286 25.394058 9.349945 57.440475 -4.112854 78.38454c-18.496033 28.7742 -58.31137 28.792633 -89.14438 28.792633c-41.80316 0 -85.51378 2.263977 -124.80052 -14.397858c-16.908768 -7.1711426 -31.910706 -19.40036 -48.0 -28.792633" fill-rule="evenodd"/><path stroke="#d30505" stroke-width="12.0" stroke-linejoin="round" stroke-linecap="butt" d="m378.56693 71.272964c0 53.559677 12.167999 106.40341 23.314972 158.361c5.4480286 25.394058 9.349945 57.440475 -4.112854 78.38454c-18.496033 28.7742 -58.31137 28.792633 -89.14438 28.792633c-41.80316 0 -85.51378 2.263977 -124.80052 -14.397858c-16.908768 -7.1711426 -31.910706 -19.40036 -48.0 -28.792633" fill-rule="evenodd"/></g><g filter="url(#shadowFilter-p.3)"><use xlink:href="#p.3" transform="matrix(1.0 0.0 0.0 1.0 5.860225721784813 17.0193346456693)"/></g><defs><filter id="shadowFilter-p.3" filterUnits="userSpaceOnUse"><feGaussianBlur in="SourceAlpha" stdDeviation="1.0" result="blur"/><feComponentTransfer in="blur" color-interpolation-filters="sRGB"><feFuncR type="linear" slope="0" intercept="0.0"/><feFuncG type="linear" slope="0" intercept="0.0"/><feFuncB type="linear" slope="0" intercept="0.0"/><feFuncA type="linear" slope="0.5" intercept="0"/></feComponentTransfer></filter></defs><g id="p.3"><path fill="#000000" fill-opacity="0.0" d="m400.5117 63.086613c0 31.115955 4.112854 62.141262 4.112854 93.25722c0 27.889145 -4.0907593 56.30742 1.3727112 83.65617c5.1949463 26.004547 6.566925 53.539154 1.3700867 79.543304c-2.811676 14.069122 -13.64502 25.702545 -16.456696 39.771667c-5.9236145 29.640717 -5.485565 60.287598 -5.485565 90.514435c0 44.352356 -0.66186523 88.80737 2.7427979 133.02887c1.1930847 15.496582 0 31.084839 0 46.62726c0 5.9607544 1.295044 23.159851 -1.3727112 17.829407" fill-rule="evenodd"/><path stroke="#434343" stroke-width="12.0" stroke-linejoin="round" stroke-linecap="butt" d="m400.5117 63.086613c0 31.115955 4.112854 62.141262 4.112854 93.25722c0 27.889145 -4.0907593 56.30742 1.3727112 83.65617c5.1949463 26.004547 6.566925 53.539154 1.3700867 79.543304c-2.811676 14.069122 -13.64502 25.702545 -16.456696 39.771667c-5.9236145 29.640717 -5.485565 60.287598 -5.485565 90.514435c0 44.352356 -0.66186523 88.80737 2.7427979 133.02887c1.1930847 15.496582 0 31.084839 0 46.62726c0 5.9607544 1.295044 23.159851 -1.3727112 17.829407" fill-rule="evenodd"/></g><g filter="url(#shadowFilter-p.4)"><use xlink:href="#p.4" transform="matrix(1.0 0.0 0.0 1.0 6.742918110236221 16.68930971128611)"/></g><defs><filter id="shadowFilter-p.4" filterUnits="userSpaceOnUse"><feGaussianBlur in="SourceAlpha" stdDeviation="1.0" result="blur"/><feComponentTransfer in="blur" color-interpolation-filters="sRGB"><feFuncR type="linear" slope="0" intercept="0.0"/><feFuncG type="linear" slope="0" intercept="0.0"/><feFuncB type="linear" slope="0" intercept="0.0"/><feFuncA type="linear" slope="0.5" intercept="0"/></feComponentTransfer></filter></defs><g id="p.4"><path fill="#000000" fill-opacity="0.0" d="m384.24408 54.85827c0 47.58246 14.664764 94.042885 20.572205 141.2572c8.238068 65.841644 -8.635986 149.4361 -61.71393 189.25723c-40.250824 30.197754 -101.87642 17.01004 -150.85826 5.485565c-63.082138 -14.842041 -128.54031 -25.896332 -186.51443 -54.85565" fill-rule="evenodd"/><path stroke="#fff13d" stroke-width="12.0" stroke-linejoin="round" stroke-linecap="butt" d="m384.24408 54.85827c0 47.58246 14.664764 94.042885 20.572205 141.2572c8.238068 65.841644 -8.635986 149.4361 -61.71393 189.25723c-40.250824 30.197754 -101.87642 17.01004 -150.85826 5.485565c-63.082138 -14.842041 -128.54031 -25.896332 -186.51443 -54.85565" fill-rule="evenodd"/></g><g filter="url(#shadowFilter-p.5)"><use xlink:href="#p.5" transform="matrix(1.0 0.0 0.0 1.0 6.368311548556434 15.762125721784752)"/></g><defs><filter id="shadowFilter-p.5" filterUnits="userSpaceOnUse"><feGaussianBlur in="SourceAlpha" stdDeviation="1.0" result="blur"/><feComponentTransfer in="blur" color-interpolation-filters="sRGB"><feFuncR type="linear" slope="0" intercept="0.0"/><feFuncG type="linear" slope="0" intercept="0.0"/><feFuncB type="linear" slope="0" intercept="0.0"/><feFuncA type="linear" slope="0.5" intercept="0"/></feComponentTransfer></filter></defs><g id="p.5"><path fill="#000000" fill-opacity="0.0" d="m377.19684 54.85827c0 47.85285 6.2288513 95.63123 13.713928 142.83179c9.032471 56.95848 -8.787537 119.28395 -37.02887 168.80043c-24.142914 42.330536 -71.76721 66.43121 -115.19948 85.12088c-37.342422 16.069122 -74.845795 32.34836 -113.8294 43.283875c-24.297775 6.8158875 -50.281067 1.4413147 -75.427826 1.4413147" fill-rule="evenodd"/><path stroke="#434343" stroke-width="12.0" stroke-linejoin="round" stroke-linecap="butt" d="m377.19684 54.85827c0 47.85285 6.2288513 95.63123 13.713928 142.83179c9.032471 56.95848 -8.787537 119.28395 -37.02887 168.80043c-24.142914 42.330536 -71.76721 66.43121 -115.19948 85.12088c-37.342422 16.069122 -74.845795 32.34836 -113.8294 43.283875c-24.297775 6.8158875 -50.281067 1.4413147 -75.427826 1.4413147" fill-rule="evenodd"/></g><g filter="url(#shadowFilter-p.6)"><use xlink:href="#p.6" transform="matrix(1.0 0.0 0.0 1.0 6.642428871391076 15.648582677165317)"/></g><defs><filter id="shadowFilter-p.6" filterUnits="userSpaceOnUse"><feGaussianBlur in="SourceAlpha" stdDeviation="1.0" result="blur"/><feComponentTransfer in="blur" color-interpolation-filters="sRGB"><feFuncR type="linear" slope="0" intercept="0.0"/><feFuncG type="linear" slope="0" intercept="0.0"/><feFuncB type="linear" slope="0" intercept="0.0"/><feFuncA type="linear" slope="0.5" intercept="0"/></feComponentTransfer></filter></defs><g id="p.6"><path fill="#000000" fill-opacity="0.0" d="m404.84253 63.086613c0 87.78151 9.585266 175.70142 4.1154785 263.31235c-4.0813904 65.37244 -16.658905 141.87222 -65.82941 185.14435c-44.151245 38.85501 -113.98689 35.65616 -172.80052 35.65616c-68.58502 0 -137.12888 4.1154785 -205.7139 4.1154785" fill-rule="evenodd"/><path stroke="#0000ff" stroke-width="12.0" stroke-linejoin="round" stroke-linecap="butt" d="m404.84253 63.086613c0 87.78151 9.585266 175.70142 4.1154785 263.31235c-4.0813904 65.37244 -16.658905 141.87222 -65.82941 185.14435c-44.151245 38.85501 -113.98689 35.65616 -172.80052 35.65616c-68.58502 0 -137.12888 4.1154785 -205.7139 4.1154785" fill-rule="evenodd"/></g><g filter="url(#shadowFilter-p.7)"><use xlink:href="#p.7" transform="matrix(1.0 0.0 0.0 1.0 6.498381364829362 17.854160367454075)"/></g><defs><filter id="shadowFilter-p.7" filterUnits="userSpaceOnUse"><feGaussianBlur in="SourceAlpha" stdDeviation="1.0" result="blur"/><feComponentTransfer in="blur" color-interpolation-filters="sRGB"><feFuncR type="linear" slope="0" intercept="0.0"/><feFuncG type="linear" slope="0" intercept="0.0"/><feFuncB type="linear" slope="0" intercept="0.0"/><feFuncA type="linear" slope="0.5" intercept="0"/></feComponentTransfer></filter></defs><g id="p.7"><path fill="#000000" fill-opacity="0.0" d="m406.07874 71.272964c0 41.259598 2.0 82.50081 2.0 123.76041c0 43.29973 1.3023376 95.27666 30.0 125.89418c52.26004 55.756256 140.49927 53.6257 214.0 61.88022c114.19263 12.824432 229.17645 19.204193 344.0 19.204193" fill-rule="evenodd"/><path stroke="#d30505" stroke-width="12.0" stroke-linejoin="round" stroke-linecap="butt" d="m406.07874 71.272964c0 41.259598 2.0 82.50081 2.0 123.76041c0 43.29973 1.3023376 95.27666 30.0 125.89418c52.26004 55.756256 140.49927 53.6257 214.0 61.88022c114.19263 12.824432 229.17645 19.204193 344.0 19.204193" fill-rule="evenodd"/></g><defs><linearGradient id="p.8" gradientUnits="userSpaceOnUse" gradientTransform="matrix(0.0 6.1922495954832195 -6.1922495954832195 0.0 0.0 0.0)" spreadMethod="pad" x1="38.536446715905505" y1="-68.21415491243086" x2="38.53642353584094" y2="-62.021905316991024"><stop offset="0.0" stop-color="#d9d9d9"/><stop offset="0.62" stop-color="#d5d5d5"/><stop offset="0.69" stop-color="#efefef"/><stop offset="0.79" stop-color="#dedede"/><stop offset="1.0" stop-color="#cccccc"/></linearGradient></defs><path fill="url(#p.8)" d="m422.39896 243.4182l0 23.954514c0 -2.645935 -8.583557 -4.790924 -19.171936 -4.790924c-10.588348 0 -19.171906 2.144989 -19.171906 4.790924l0 -23.954514l0 0c0 -2.645935 8.583557 -4.790909 19.171906 -4.790909c10.588379 0 19.171936 2.1449738 19.171936 4.790909z" fill-rule="evenodd"/><path stroke="#666666" stroke-width="3.0" stroke-linejoin="round" stroke-linecap="butt" d="m422.39896 243.4182l0 23.954514c0 -2.645935 -8.583557 -4.790924 -19.171936 -4.790924c-10.588348 0 -19.171906 2.144989 -19.171906 4.790924l0 -23.954514l0 0c0 -2.645935 8.583557 -4.790909 19.171906 -4.790909c10.588379 0 19.171936 2.1449738 19.171936 4.790909z" fill-rule="evenodd"/><path fill="#cccccc" d="m422.39896 246.50131l24.0 0l0 20.881897l-24.0 0z" fill-rule="evenodd"/><path stroke="#666666" stroke-width="3.0" stroke-linejoin="round" stroke-linecap="butt" d="m422.39896 246.50131l24.0 0l0 20.881897l-24.0 0z" fill-rule="evenodd"/><path fill="#cccccc" d="m360.0551 246.50131l24.0 0l0 20.881897l-24.0 0z" fill-rule="evenodd"/><path stroke="#666666" stroke-width="3.0" stroke-linejoin="round" stroke-linecap="butt" d="m360.0551 246.50131l24.0 0l0 20.881897l-24.0 0z" fill-rule="evenodd"/><path fill="#ffffff" d="m370.46457 256.94226l0 0c0 -0.8784485 0.71209717 -1.5905609 1.5905457 -1.5905609l0 0c0.42184448 0 0.826416 0.16758728 1.1246948 0.4658661c0.2982788 0.2982788 0.46585083 0.70285034 0.46585083 1.1246948l0 0c0 0.8784485 -0.71209717 1.5905457 -1.5905457 1.5905457l0 0c-0.8784485 0 -1.5905457 -0.71209717 -1.5905457 -1.5905457z" fill-rule="evenodd"/><path stroke="#666666" stroke-width="3.0" stroke-linejoin="round" stroke-linecap="butt" d="m370.46457 256.94226l0 0c0 -0.8784485 0.71209717 -1.5905609 1.5905457 -1.5905609l0 0c0.42184448 0 0.826416 0.16758728 1.1246948 0.4658661c0.2982788 0.2982788 0.46585083 0.70285034 0.46585083 1.1246948l0 0c0 0.8784485 -0.71209717 1.5905457 -1.5905457 1.5905457l0 0c-0.8784485 0 -1.5905457 -0.71209717 -1.5905457 -1.5905457z" fill-rule="evenodd"/><path fill="#ffffff" d="m432.8084 256.94226l0 0c0 -0.8784485 0.71209717 -1.5905609 1.5905457 -1.5905609l0 0c0.42184448 0 0.8263855 0.16758728 1.1246948 0.4658661c0.2982788 0.2982788 0.46585083 0.70285034 0.46585083 1.1246948l0 0c0 0.8784485 -0.7121277 1.5905457 -1.5905457 1.5905457l0 0c-0.8784485 0 -1.5905457 -0.71209717 -1.5905457 -1.5905457z" fill-rule="evenodd"/><path stroke="#666666" stroke-width="3.0" stroke-linejoin="round" stroke-linecap="butt" d="m432.8084 256.94226l0 0c0 -0.8784485 0.71209717 -1.5905609 1.5905457 -1.5905609l0 0c0.42184448 0 0.8263855 0.16758728 1.1246948 0.4658661c0.2982788 0.2982788 0.46585083 0.70285034 0.46585083 1.1246948l0 0c0 0.8784485 -0.7121277 1.5905457 -1.5905457 1.5905457l0 0c-0.8784485 0 -1.5905457 -0.71209717 -1.5905457 -1.5905457z" fill-rule="evenodd"/><g filter="url(#shadowFilter-p.9)"><use xlink:href="#p.9" transform="matrix(1.0 0.0 0.0 1.0 7.890680052493417 16.17829317585304)"/></g><defs><filter id="shadowFilter-p.9" filterUnits="userSpaceOnUse"><feGaussianBlur in="SourceAlpha" stdDeviation="1.0" result="blur"/><feComponentTransfer in="blur" color-interpolation-filters="sRGB"><feFuncR type="linear" slope="0" intercept="0.0"/><feFuncG type="linear" slope="0" intercept="0.0"/><feFuncB type="linear" slope="0" intercept="0.0"/><feFuncA type="linear" slope="0.5" intercept="0"/></feComponentTransfer></filter></defs><g id="p.9"><path fill="#000000" fill-opacity="0.0" d="m519.82416 74.05774c5.1619873 30.942345 25.736816 58.08705 30.173218 89.14174c6.0180054 42.126053 1.7993164 85.14952 5.4855347 127.54329c5.6329346 64.78085 30.367188 131.65802 72.68506 181.0289c19.160706 22.354156 45.967896 37.13394 71.31494 52.112854c34.688965 20.499512 69.54895 47.529724 109.71393 50.742798c37.822327 3.0256348 75.88629 0 113.82941 0" fill-rule="evenodd"/><path stroke="#434343" stroke-width="12.0" stroke-linejoin="round" stroke-linecap="butt" d="m519.82416 74.05774c5.1619873 30.942345 25.736816 58.08705 30.173218 89.14174c6.0180054 42.126053 1.7993164 85.14952 5.4855347 127.54329c5.6329346 64.78085 30.367188 131.65802 72.68506 181.0289c19.160706 22.354156 45.967896 37.13394 71.31494 52.112854c34.688965 20.499512 69.54895 47.529724 109.71393 50.742798c37.822327 3.0256348 75.88629 0 113.82941 0" fill-rule="evenodd"/></g><g filter="url(#shadowFilter-p.10)"><use xlink:href="#p.10" transform="matrix(1.0 0.0 0.0 1.0 5.814341207349069 15.974775065616823)"/></g><defs><filter id="shadowFilter-p.10" filterUnits="userSpaceOnUse"><feGaussianBlur in="SourceAlpha" stdDeviation="1.0" result="blur"/><feComponentTransfer in="blur" color-interpolation-filters="sRGB"><feFuncR type="linear" slope="0" intercept="0.0"/><feFuncG type="linear" slope="0" intercept="0.0"/><feFuncB type="linear" slope="0" intercept="0.0"/><feFuncA type="linear" slope="0.5" intercept="0"/></feComponentTransfer></filter></defs><g id="p.10"><path fill="#000000" fill-opacity="0.0" d="m526.68243 83.656166c5.1696167 36.227135 19.51538 70.743996 24.684998 106.97114c9.337524 65.43425 -17.657776 141.72539 17.829407 197.48817c9.930298 15.603943 28.306702 23.814148 42.514465 35.65619c9.687134 8.074127 15.244202 20.939392 26.05774 27.427795c29.136963 17.48294 63.327576 24.951782 96.0 34.286102c46.068726 13.161591 90.59985 38.398956 138.51178 38.398956" fill-rule="evenodd"/><path stroke="#0000ff" stroke-width="12.0" stroke-linejoin="round" stroke-linecap="butt" d="m526.68243 83.656166c5.1696167 36.227135 19.51538 70.743996 24.684998 106.97114c9.337524 65.43425 -17.657776 141.72539 17.829407 197.48817c9.930298 15.603943 28.306702 23.814148 42.514465 35.65619c9.687134 8.074127 15.244202 20.939392 26.05774 27.427795c29.136963 17.48294 63.327576 24.951782 96.0 34.286102c46.068726 13.161591 90.59985 38.398956 138.51178 38.398956" fill-rule="evenodd"/></g><g filter="url(#shadowFilter-p.11)"><use xlink:href="#p.11" transform="matrix(1.0 0.0 0.0 1.0 7.117524671916003 17.616493438320223)"/></g><defs><filter id="shadowFilter-p.11" filterUnits="userSpaceOnUse"><feGaussianBlur in="SourceAlpha" stdDeviation="1.0" result="blur"/><feComponentTransfer in="blur" color-interpolation-filters="sRGB"><feFuncR type="linear" slope="0" intercept="0.0"/><feFuncG type="linear" slope="0" intercept="0.0"/><feFuncB type="linear" slope="0" intercept="0.0"/><feFuncA type="linear" slope="0.5" intercept="0"/></feComponentTransfer></filter></defs><g id="p.11"><path fill="#000000" fill-opacity="0.0" d="m544.03937 89.0c0 55.621735 -3.9050903 127.85156 40.0 162.0c38.81317 30.188019 94.86548 30.110199 144.0 32.0c52.30426 2.0116882 104.657166 3.0 157.0 3.0" fill-rule="evenodd"/><path stroke="#fff13d" stroke-width="12.0" stroke-linejoin="round" stroke-linecap="butt" d="m544.03937 89.0c0 55.621735 -3.9050903 127.85156 40.0 162.0c38.81317 30.188019 94.86548 30.110199 144.0 32.0c52.30426 2.0116882 104.657166 3.0 157.0 3.0" fill-rule="evenodd"/></g><g filter="url(#shadowFilter-p.12)"><use xlink:href="#p.12" transform="matrix(1.0 0.0 0.0 1.0 7.9810154855642725 15.0101097112861)"/></g><defs><filter id="shadowFilter-p.12" filterUnits="userSpaceOnUse"><feGaussianBlur in="SourceAlpha" stdDeviation="1.0" result="blur"/><feComponentTransfer in="blur" color-interpolation-filters="sRGB"><feFuncR type="linear" slope="0" intercept="0.0"/><feFuncG type="linear" slope="0" intercept="0.0"/><feFuncB type="linear" slope="0" intercept="0.0"/><feFuncA type="linear" slope="0.5" intercept="0"/></feComponentTransfer></filter></defs><g id="p.12"><path fill="#000000" fill-opacity="0.0" d="m555.8504 59.771652c0 16.785599 1.5905151 33.65435 0 50.356804c-2.8219604 29.633415 -18.424622 56.774925 -21.94226 86.32633c-1.6428223 13.800949 1.3203735 27.885452 0 41.72444c-2.6016235 27.267242 -10.608337 55.13745 -5.4855957 82.00879c5.788025 30.361023 20.514648 58.552155 24.685059 89.2038c5.1742554 38.02939 1.1243896 76.95941 5.4855957 115.10086c4.605835 40.280945 13.713867 80.28607 13.713867 120.855774" fill-rule="evenodd"/><path stroke="#d30505" stroke-width="12.0" stroke-linejoin="round" stroke-linecap="butt" d="m555.8504 59.771652c0 16.785599 1.5905151 33.65435 0 50.356804c-2.8219604 29.633415 -18.424622 56.774925 -21.94226 86.32633c-1.6428223 13.800949 1.3203735 27.885452 0 41.72444c-2.6016235 27.267242 -10.608337 55.13745 -5.4855957 82.00879c5.788025 30.361023 20.514648 58.552155 24.685059 89.2038c5.1742554 38.02939 1.1243896 76.95941 5.4855957 115.10086c4.605835 40.280945 13.713867 80.28607 13.713867 120.855774" fill-rule="evenodd"/></g><g filter="url(#shadowFilter-p.13)"><use xlink:href="#p.13" transform="matrix(1.0 0.0 0.0 1.0 9.750798425196852 13.92558556430444)"/></g><defs><filter id="shadowFilter-p.13" filterUnits="userSpaceOnUse"><feGaussianBlur in="SourceAlpha" stdDeviation="1.0" result="blur"/><feComponentTransfer in="blur" color-interpolation-filters="sRGB"><feFuncR type="linear" slope="0" intercept="0.0"/><feFuncG type="linear" slope="0" intercept="0.0"/><feFuncB type="linear" slope="0" intercept="0.0"/><feFuncA type="linear" slope="0.5" intercept="0"/></feComponentTransfer></filter></defs><g id="p.13"><path fill="#000000" fill-opacity="0.0" d="m539.0 83.0c0 67.73314 9.0 135.26686 9.0 203.0c0 44.61441 12.390564 97.78354 -15.0 133.0c-34.31787 44.122986 -101.31882 48.41513 -155.0 64.0c-110.48389 32.07599 -232.3891 55.90271 -344.0 28.0" fill-rule="evenodd"/><path stroke="#fff13d" stroke-width="12.0" stroke-linejoin="round" stroke-linecap="butt" d="m539.0 83.0c0 67.73314 9.0 135.26686 9.0 203.0c0 44.61441 12.390564 97.78354 -15.0 133.0c-34.31787 44.122986 -101.31882 48.41513 -155.0 64.0c-110.48389 32.07599 -232.3891 55.90271 -344.0 28.0" fill-rule="evenodd"/></g><defs><linearGradient id="p.14" gradientUnits="userSpaceOnUse" gradientTransform="matrix(0.0 6.1922495954832195 -6.1922495954832195 0.0 0.0 0.0)" spreadMethod="pad" x1="29.60351212130044" y1="-91.39527913444513" x2="29.60348894123588" y2="-85.2030295390053"><stop offset="0.0" stop-color="#d9d9d9"/><stop offset="0.31" stop-color="#d5d5d5"/><stop offset="0.39" stop-color="#efefef"/><stop offset="0.47" stop-color="#dedede"/><stop offset="1.0" stop-color="#cccccc"/></linearGradient></defs><path fill="url(#p.14)" d="m565.94226 188.10324l0 23.954498c0 -2.645935 -8.583557 -4.7908936 -19.171936 -4.7908936c-10.588318 0 -19.171875 2.1449585 -19.171875 4.7908936l0 -23.954498l0 0c0 -2.6459503 8.583557 -4.790909 19.171875 -4.790909c10.588379 0 19.171936 2.1449585 19.171936 4.790909z" fill-rule="evenodd"/><path stroke="#666666" stroke-width="3.0" stroke-linejoin="round" stroke-linecap="butt" d="m565.94226 188.10324l0 23.954498c0 -2.645935 -8.583557 -4.7908936 -19.171936 -4.7908936c-10.588318 0 -19.171875 2.1449585 -19.171875 4.7908936l0 -23.954498l0 0c0 -2.6459503 8.583557 -4.790909 19.171875 -4.790909c10.588379 0 19.171936 2.1449585 19.171936 4.790909z" fill-rule="evenodd"/><path fill="#cccccc" d="m503.59842 191.17586l24.00003 0l0 20.881882l-24.00003 0z" fill-rule="evenodd"/><path stroke="#666666" stroke-width="3.0" stroke-linejoin="round" stroke-linecap="butt" d="m503.59842 191.17586l24.00003 0l0 20.881882l-24.00003 0z" fill-rule="evenodd"/><path fill="#cccccc" d="m565.94226 191.17586l24.0 0l0 20.881882l-24.0 0z" fill-rule="evenodd"/><path stroke="#666666" stroke-width="3.0" stroke-linejoin="round" stroke-linecap="butt" d="m565.94226 191.17586l24.0 0l0 20.881882l-24.0 0z" fill-rule="evenodd"/><path fill="#ffffff" d="m514.0079 201.61679l0 0c0 -0.8784332 0.71209717 -1.5905457 1.5905762 -1.5905457l0 0c0.42181396 0 0.826355 0.16757202 1.1246948 0.4658661c0.2982788 0.2982788 0.4658203 0.70285034 0.4658203 1.1246796l0 0c0 0.8784485 -0.71209717 1.5905609 -1.5905151 1.5905609l0 0c-0.878479 0 -1.5905762 -0.7121124 -1.5905762 -1.5905609z" fill-rule="evenodd"/><path stroke="#666666" stroke-width="3.0" stroke-linejoin="round" stroke-linecap="butt" d="m514.0079 201.61679l0 0c0 -0.8784332 0.71209717 -1.5905457 1.5905762 -1.5905457l0 0c0.42181396 0 0.826355 0.16757202 1.1246948 0.4658661c0.2982788 0.2982788 0.4658203 0.70285034 0.4658203 1.1246796l0 0c0 0.8784485 -0.71209717 1.5905609 -1.5905151 1.5905609l0 0c-0.878479 0 -1.5905762 -0.7121124 -1.5905762 -1.5905609z" fill-rule="evenodd"/><path fill="#ffffff" d="m576.3517 201.61679l0 0c0 -0.8784332 0.7121582 -1.5905457 1.5905762 -1.5905457l0 0c0.42181396 0 0.826416 0.16757202 1.1246948 0.4658661c0.2982788 0.2982788 0.46588135 0.70285034 0.46588135 1.1246796l0 0c0 0.8784485 -0.7121582 1.5905609 -1.5905762 1.5905609l0 0c-0.87841797 0 -1.5905762 -0.7121124 -1.5905762 -1.5905609z" fill-rule="evenodd"/><path stroke="#666666" stroke-width="3.0" stroke-linejoin="round" stroke-linecap="butt" d="m576.3517 201.61679l0 0c0 -0.8784332 0.7121582 -1.5905457 1.5905762 -1.5905457l0 0c0.42181396 0 0.826416 0.16757202 1.1246948 0.4658661c0.2982788 0.2982788 0.46588135 0.70285034 0.46588135 1.1246796l0 0c0 0.8784485 -0.7121582 1.5905609 -1.5905762 1.5905609l0 0c-0.87841797 0 -1.5905762 -0.7121124 -1.5905762 -1.5905609z" fill-rule="evenodd"/><path fill="#5b6862" d="m311.49606 23.884514l377.0079 0l0 70.48819l-377.0079 0z" fill-rule="evenodd"/><path fill="#000000" fill-opacity="0.0" d="m294.0 94.50131l425.00787 0" fill-rule="evenodd"/><path stroke="#000000" stroke-width="3.0" stroke-linejoin="round" stroke-linecap="butt" d="m294.0 94.50131l425.00787 0" fill-rule="evenodd"/><path fill="#5b6862" d="m923.02625 334.4987l109.44885 0l0 267.99997l-109.44885 0z" fill-rule="evenodd"/><path fill="#000000" fill-opacity="0.0" d="m921.71655 269.4987l0 267.99997" fill-rule="evenodd"/><path stroke="#000000" stroke-width="3.0" stroke-linejoin="round" stroke-linecap="butt" d="m921.71655 269.4987l0 267.99997" fill-rule="evenodd"/><path fill="#5b6862" d="m-32.475067 287.4987l109.44882 0l0 310.4882l-109.44882 0z" fill-rule="evenodd"/><defs><linearGradient id="p.15" gradientUnits="userSpaceOnUse" gradientTransform="matrix(23.037804681811313 0.0 0.0 23.037804681811313 0.0 0.0)" spreadMethod="pad" x1="3.398043591746182" y1="4.107580365982667" x2="3.3979601477222166" y2="27.145385047642858"><stop offset="0.0" stop-color="#696969"/><stop offset="0.82" stop-color="#434343"/><stop offset="1.0" stop-color="#1d1d1d"/></linearGradient></defs><path fill="url(#p.15)" d="m78.28346 94.62992l79.433075 0l0 530.7401l-79.433075 0z" fill-rule="evenodd"/><path stroke="#000000" stroke-width="3.0" stroke-linejoin="round" stroke-linecap="butt" d="m78.28346 94.62992l79.433075 0l0 530.7401l-79.433075 0z" fill-rule="evenodd"/><defs><linearGradient id="p.16" gradientUnits="userSpaceOnUse" gradientTransform="matrix(23.037804681814983 0.0 0.0 23.037804681814983 0.0 0.0)" spreadMethod="pad" x1="36.56092566978789" y1="4.107580365982012" x2="36.560840223107355" y2="27.145385047638534"><stop offset="0.0" stop-color="#696969"/><stop offset="0.82" stop-color="#434343"/><stop offset="1.0" stop-color="#1d1d1d"/></linearGradient></defs><path fill="url(#p.16)" d="m842.28345 94.62992l79.433105 0l0 530.7401l-79.433105 0z" fill-rule="evenodd"/><path stroke="#000000" stroke-width="3.0" stroke-linejoin="round" stroke-linecap="butt" d="m842.28345 94.62992l79.433105 0l0 530.7401l-79.433105 0z" fill-rule="evenodd"/><path fill="#5b6862" d="m360.0551 625.6273l255.71655 0l0 61.07086l-255.71655 0z" fill-rule="evenodd"/><path fill="#000000" fill-opacity="0.0" d="m348.5013 625.37006l285.0079 0" fill-rule="evenodd"/><path stroke="#000000" stroke-width="3.0" stroke-linejoin="round" stroke-linecap="butt" d="m348.5013 625.37006l285.0079 0" fill-rule="evenodd"/><path fill="#000000" fill-opacity="0.375" d="m159.02625 94.64304l683.2441 0l0 530.7401l-683.2441 0z" fill-rule="evenodd"/><path stroke="#000000" stroke-width="1.0" stroke-linejoin="round" stroke-linecap="butt" d="m159.02625 94.64304l683.2441 0l0 530.7401l-683.2441 0z" fill-rule="evenodd"/><path fill="#fff831" d="m78.72 138.14699l79.433075 0l0 28.755905l-79.433075 0z" fill-rule="evenodd"/><path stroke="#000000" stroke-width="3.0" stroke-linejoin="round" stroke-linecap="butt" d="m78.72 138.14699l79.433075 0l0 28.755905l-79.433075 0z" fill-rule="evenodd"/><path fill="#fff831" d="m78.28346 266.0656l79.433075 0l0 28.75592l-79.433075 0z" fill-rule="evenodd"/><path stroke="#000000" stroke-width="3.0" stroke-linejoin="round" stroke-linecap="butt" d="m78.28346 266.0656l79.433075 0l0 28.75592l-79.433075 0z" fill-rule="evenodd"/><path fill="#fff831" d="m78.28346 393.98425l79.433075 0l0 28.75589l-79.433075 0z" fill-rule="evenodd"/><path stroke="#000000" stroke-width="3.0" stroke-linejoin="round" stroke-linecap="butt" d="m78.28346 393.98425l79.433075 0l0 28.75589l-79.433075 0z" fill-rule="evenodd"/><path fill="#fff831" d="m78.28346 521.9029l79.433075 0l0 28.75592l-79.433075 0z" fill-rule="evenodd"/><path stroke="#000000" stroke-width="3.0" stroke-linejoin="round" stroke-linecap="butt" d="m78.28346 521.9029l79.433075 0l0 28.75592l-79.433075 0z" fill-rule="evenodd"/><path fill="#fff13d" d="m78.50131 167.69423l109.44882 0l0 28.7874l-109.44882 0z" fill-rule="evenodd"/><path stroke="#d1c41f" stroke-width="4.0" stroke-linejoin="round" stroke-linecap="butt" d="m78.50131 167.69423l109.44882 0l0 28.7874l-109.44882 0z" fill-rule="evenodd"/><path fill="#d30505" d="m78.50131 296.1509l109.44882 0l0 28.787415l-109.44882 0z" fill-rule="evenodd"/><path stroke="#980000" stroke-width="4.0" stroke-linejoin="round" stroke-linecap="butt" d="m78.50131 296.1509l109.44882 0l0 28.787415l-109.44882 0z" fill-rule="evenodd"/><path fill="#0000ff" d="m78.50131 424.6076l109.44882 0l0 28.787415l-109.44882 0z" fill-rule="evenodd"/><path stroke="#000049" stroke-width="4.0" stroke-linejoin="round" stroke-linecap="butt" d="m78.50131 424.6076l109.44882 0l0 28.787415l-109.44882 0z" fill-rule="evenodd"/><path fill="#ff00ff" d="m78.50131 553.06433l109.44882 0l0 28.787354l-109.44882 0z" fill-rule="evenodd"/><path stroke="#c226c2" stroke-width="4.0" stroke-linejoin="round" stroke-linecap="butt" d="m78.50131 553.06433l109.44882 0l0 28.787354l-109.44882 0z" fill-rule="evenodd"/><path fill="#666666" d="m842.70685 138.14699l79.433105 0l0 28.755905l-79.433105 0z" fill-rule="evenodd"/><path stroke="#000000" stroke-width="3.0" stroke-linejoin="round" stroke-linecap="butt" d="m842.70685 138.14699l79.433105 0l0 28.755905l-79.433105 0z" fill-rule="evenodd"/><path fill="#666666" d="m842.2703 266.0656l79.433105 0l0 28.75592l-79.433105 0z" fill-rule="evenodd"/><path stroke="#000000" stroke-width="3.0" stroke-linejoin="round" stroke-linecap="butt" d="m842.2703 266.0656l79.433105 0l0 28.75592l-79.433105 0z" fill-rule="evenodd"/><path fill="#666666" d="m842.2703 393.98425l79.433105 0l0 28.75589l-79.433105 0z" fill-rule="evenodd"/><path stroke="#000000" stroke-width="3.0" stroke-linejoin="round" stroke-linecap="butt" d="m842.2703 393.98425l79.433105 0l0 28.75589l-79.433105 0z" fill-rule="evenodd"/><path fill="#666666" d="m842.2703 521.9029l79.433105 0l0 28.75592l-79.433105 0z" fill-rule="evenodd"/><path stroke="#000000" stroke-width="3.0" stroke-linejoin="round" stroke-linecap="butt" d="m842.2703 521.9029l79.433105 0l0 28.75592l-79.433105 0z" fill-rule="evenodd"/><path fill="#fff13d" d="m813.57745 424.65747l109.44879 0l0 28.787415l-109.44879 0z" fill-rule="evenodd"/><path stroke="#d1c41f" stroke-width="4.0" stroke-linejoin="round" stroke-linecap="butt" d="m813.57745 424.65747l109.44879 0l0 28.787415l-109.44879 0z" fill-rule="evenodd"/><path fill="#d30505" d="m813.57745 168.34251l109.44879 0l0 28.787415l-109.44879 0z" fill-rule="evenodd"/><path stroke="#980000" stroke-width="4.0" stroke-linejoin="round" stroke-linecap="butt" d="m813.57745 168.34251l109.44879 0l0 28.787415l-109.44879 0z" fill-rule="evenodd"/><path fill="#0000ff" d="m813.57745 296.24802l109.44879 0l0 28.787415l-109.44879 0z" fill-rule="evenodd"/><path stroke="#000049" stroke-width="4.0" stroke-linejoin="round" stroke-linecap="butt" d="m813.57745 296.24802l109.44879 0l0 28.787415l-109.44879 0z" fill-rule="evenodd"/><path fill="#ff00ff" d="m813.57745 553.06433l109.44879 0l0 28.787354l-109.44879 0z" fill-rule="evenodd"/><path stroke="#c226c2" stroke-width="4.0" stroke-linejoin="round" stroke-linecap="butt" d="m813.57745 553.06433l109.44879 0l0 28.787354l-109.44879 0z" fill-rule="evenodd"/></g></svg>